<svg width="17" height="17" viewBox="0 0 17 17" fill="none" xmlns="http://www.w3.org/2000/svg">
<path fill-rule="evenodd" clip-rule="evenodd" d="M0.711548 8.70807C0.711548 9.65439 1.47869 10.4215 2.42501 10.4215C3.37133 10.4215 4.13847 9.65439 4.13847 8.70807C4.13847 8.10803 4.25666 7.51386 4.48628 6.9595C4.71591 6.40514 5.05248 5.90143 5.47677 5.47713C5.90106 5.05284 6.40477 4.71627 6.95913 4.48665C7.5135 4.25702 8.10766 4.13884 8.7077 4.13884C9.65402 4.13884 10.4212 3.37169 10.4212 2.42538C10.4212 1.47906 9.65402 0.711914 8.7077 0.711914C7.65763 0.711914 6.61784 0.918741 5.64771 1.32059C4.67757 1.72243 3.79608 2.31142 3.05357 3.05393C2.31105 3.79645 1.72206 4.67794 1.32022 5.64807C0.918374 6.61821 0.711548 7.658 0.711548 8.70807ZM16.7039 8.70775C16.7039 7.76143 15.9368 6.99428 14.9904 6.99428C14.0441 6.99428 13.277 7.76143 13.277 8.70775C13.277 9.30779 13.1588 9.90195 12.9292 10.4563C12.6995 11.0107 12.363 11.5144 11.9387 11.9387C11.5144 12.363 11.0107 12.6995 10.4563 12.9292C9.90195 13.1588 9.30779 13.277 8.70775 13.277C7.76143 13.277 6.99428 14.0441 6.99428 14.9904C6.99428 15.9368 7.76143 16.7039 8.70775 16.7039C9.75781 16.7039 10.7976 16.4971 11.7677 16.0952C12.7379 15.6934 13.6194 15.1044 14.3619 14.3619C15.1044 13.6194 15.6934 12.7379 16.0952 11.7677C16.4971 10.7976 16.7039 9.75782 16.7039 8.70775Z" fill="#2D2D2D"/>
<path fill-rule="evenodd" clip-rule="evenodd" d="M0.711548 8.70807C0.711548 9.65439 1.47869 10.4215 2.42501 10.4215C3.37133 10.4215 4.13847 9.65439 4.13847 8.70807C4.13847 8.10803 4.25666 7.51386 4.48628 6.9595C4.71591 6.40514 5.05248 5.90143 5.47677 5.47713C5.90106 5.05284 6.40477 4.71627 6.95913 4.48665C7.5135 4.25702 8.10766 4.13884 8.7077 4.13884C9.65402 4.13884 10.4212 3.37169 10.4212 2.42538C10.4212 1.47906 9.65402 0.711914 8.7077 0.711914C7.65763 0.711914 6.61784 0.918741 5.64771 1.32059C4.67757 1.72243 3.79608 2.31142 3.05357 3.05393C2.31105 3.79645 1.72206 4.67794 1.32022 5.64807C0.918374 6.61821 0.711548 7.658 0.711548 8.70807ZM16.7039 8.70775C16.7039 7.76143 15.9368 6.99428 14.9904 6.99428C14.0441 6.99428 13.277 7.76143 13.277 8.70775C13.277 9.30779 13.1588 9.90195 12.9292 10.4563C12.6995 11.0107 12.363 11.5144 11.9387 11.9387C11.5144 12.363 11.0107 12.6995 10.4563 12.9292C9.90195 13.1588 9.30779 13.277 8.70775 13.277C7.76143 13.277 6.99428 14.0441 6.99428 14.9904C6.99428 15.9368 7.76143 16.7039 8.70775 16.7039C9.75781 16.7039 10.7976 16.4971 11.7677 16.0952C12.7379 15.6934 13.6194 15.1044 14.3619 14.3619C15.1044 13.6194 15.6934 12.7379 16.0952 11.7677C16.4971 10.7976 16.7039 9.75782 16.7039 8.70775Z" fill="#003E45"/>
</svg>
