<svg width="52" height="25" viewBox="0 0 52 25" fill="none" xmlns="http://www.w3.org/2000/svg">
<path d="M10.901 4.05302C10.928 4.0353 10.9543 4.01147 10.9795 3.98009C11.0101 3.94174 11.1108 3.95975 11.1794 3.95162C11.1832 3.96092 11.1869 3.97021 11.1904 3.97951C11.2173 3.96004 11.2703 3.93418 11.2671 3.92198C11.2506 3.85545 11.2387 3.77031 11.1921 3.73225C11.1343 3.6846 11.0651 3.65497 10.9922 3.6416C10.9028 3.67327 10.7488 3.74068 10.5781 3.80692C10.6719 3.90251 10.7807 3.99259 10.901 4.05302Z" fill="#31FA45"/>
<path d="M14.9585 5.357C14.9952 5.35817 15.032 5.35991 15.069 5.36165C15.0329 5.35526 14.9952 5.35294 14.9585 5.357Z" fill="#31FA45"/>
<path d="M7.70778 14.5109C7.70547 14.4987 7.70373 14.4868 7.70142 14.4746C7.70691 14.5411 7.71965 14.6048 7.73845 14.6661C7.72746 14.6144 7.71733 14.5629 7.70778 14.5109Z" fill="#31FA45"/>
<path d="M19.81 5.93991C19.8343 5.92858 19.858 5.91725 19.8821 5.90621C19.8523 5.89633 19.8233 5.88936 19.7947 5.88354C19.7958 5.8879 19.7976 5.89197 19.7987 5.89633C19.8022 5.91086 19.806 5.92538 19.81 5.93991Z" fill="#31FA45"/>
<path d="M9.4751 18.0846C9.21323 17.7961 8.97769 17.4925 8.76877 17.1743C8.76733 17.1735 8.76588 17.1726 8.76443 17.1717C8.72392 17.1496 8.7083 17.1214 8.71553 17.0918C8.65564 16.9977 8.59805 16.9024 8.54279 16.8056C8.49678 16.7766 8.45337 16.7458 8.41836 16.7068C8.16893 16.4294 7.89752 16.1696 7.71088 15.839C7.60874 15.658 7.48807 15.4874 7.37696 15.3113C7.34513 15.2611 7.31099 15.2108 7.29015 15.1556C7.24906 15.0461 7.22013 14.9316 7.17933 14.8218C7.09165 14.5847 7.00369 14.3476 6.9082 14.1134C6.8376 13.9402 6.75339 13.7726 6.67961 13.6009C6.65935 13.5538 6.65385 13.5 6.64141 13.4495C6.65183 13.4419 6.66225 13.4347 6.67266 13.4271C6.8347 13.507 6.87232 13.5291 6.90386 13.5233C7.02337 13.5018 7.13882 13.4925 7.25861 13.5181C7.30115 13.6151 7.38825 13.6901 7.5199 13.6994C7.54652 13.7781 7.52077 13.9327 7.66603 14.2671C7.6423 14.1146 7.62263 13.9614 7.607 13.8074C7.5908 13.7717 7.5743 13.736 7.55839 13.7002C7.57141 13.6999 7.58414 13.6985 7.59629 13.6967C7.57691 13.4783 7.56591 13.2583 7.56302 13.0375C7.55781 13.0372 7.55289 13.0369 7.54739 13.0369C7.45248 13.0369 7.3787 13.07 7.32603 13.1215C7.31793 13.1046 7.30954 13.0875 7.30086 13.0712C7.30694 13.0907 7.31243 13.1101 7.31822 13.1296C7.26035 13.1906 7.23026 13.2746 7.22823 13.3594C6.93627 13.3655 6.78059 13.1316 6.56878 13.0822C6.49847 13.0657 6.47272 13.0334 6.46172 12.9739C6.45015 12.9123 6.47301 12.8791 6.53753 12.8591C6.61624 12.8347 6.67932 12.6755 6.66948 12.5976C6.66456 12.5598 6.68945 12.4933 6.71722 12.4825C6.75658 12.4674 6.81618 12.4817 6.85698 12.5029C6.88447 12.5174 6.88852 12.5714 6.91341 12.5976C6.938 12.6235 6.97736 12.6551 7.00716 12.6522C7.11509 12.6409 7.15155 12.7005 7.18135 12.7891C7.21434 12.8867 7.2618 12.9791 7.30288 13.0741C7.29681 13.0372 7.29594 12.9986 7.28408 12.964C7.20624 12.7417 7.21752 12.7016 7.41602 12.5877C7.45161 12.5671 7.5037 12.5592 7.54276 12.5683C7.55405 12.5709 7.56012 12.5964 7.56736 12.6272C7.57546 12.3803 7.59311 12.1321 7.62176 11.884C7.62841 11.825 7.63594 11.7663 7.64375 11.7082C7.57315 11.6173 7.50978 11.5121 7.42644 11.4185C7.54537 11.3953 7.65648 11.3596 7.69583 11.2678C7.70162 11.2712 7.70712 11.2741 7.71291 11.2773C7.84688 10.5608 8.0665 9.92077 8.37988 9.33444C8.41952 9.26006 8.46032 9.18713 8.5017 9.11449C8.47016 9.08311 8.43167 9.05464 8.4146 9.01687C8.40476 8.99479 8.43601 8.95411 8.44874 8.92186C8.46408 8.92041 8.47913 8.91866 8.49446 8.91721C8.51443 8.95208 8.53902 8.98578 8.55523 9.02152C8.86629 8.49039 9.21988 8.01157 9.61197 7.58998C9.57753 7.57313 9.53731 7.56383 9.48523 7.56761C9.41549 7.57255 9.3336 7.49759 9.2711 7.44238C9.25548 7.42844 9.32029 7.30582 9.32 7.282C9.31769 7.08704 9.51358 7.25701 9.68286 7.19629C9.76359 7.16723 9.8041 7.17508 9.84924 7.248C9.86197 7.26834 9.87528 7.28839 9.88888 7.30815C9.9644 7.23522 10.0414 7.16404 10.1195 7.09518C10.1632 7.05653 10.2075 7.01847 10.2523 6.98099C10.2089 6.90487 10.1635 6.8299 10.1236 6.75204C10.0854 6.67737 10.0506 6.60909 9.96383 6.57393C9.9155 6.55446 9.86573 6.50681 9.84577 6.45945C9.83014 6.42226 9.86052 6.32435 9.86805 6.32464C10.026 6.33074 10.1887 6.32929 10.3388 6.37084C10.3929 6.38565 10.4248 6.50681 10.4528 6.58439C10.4751 6.6457 10.4957 6.70787 10.5159 6.77092C10.6997 6.63146 10.8909 6.50129 11.0886 6.38013C11.0848 6.372 11.0813 6.36386 11.0784 6.35486C11.0399 6.23835 11.1279 6.16513 11.1233 6.05966C10.9876 5.9937 10.8218 6.20958 10.7295 6.0707C10.6887 6.00939 10.748 5.86702 10.73 5.79119C10.7046 5.68514 10.6351 5.59914 10.5758 5.50732C10.5645 5.48989 10.5556 5.47391 10.5478 5.45851C10.5556 5.4681 10.5628 5.47856 10.5709 5.48815C10.6725 5.60524 10.7969 5.70025 10.9277 5.77666C11.079 5.86615 11.2379 5.93734 11.3895 6.01462C11.4228 6.06518 11.4546 6.11109 11.4859 6.15467C11.8348 5.97075 12.2017 5.81298 12.5863 5.68369C12.7602 5.62529 12.9379 5.57473 13.1193 5.53144C13.1144 5.53202 13.1097 5.53231 13.1051 5.5326C13.0414 5.53376 12.9778 5.53289 12.9182 5.53289C12.8913 5.41609 12.9876 5.2682 13.099 5.25571C13.2391 5.23973 13.3811 5.23915 13.5157 5.23217C13.5611 5.3176 13.5145 5.34462 13.4654 5.37948C13.4309 5.40389 13.4014 5.43905 13.3785 5.47566C13.8007 5.39372 14.2411 5.35246 14.6948 5.35246C14.7255 5.35246 14.7565 5.35304 14.7874 5.35333C14.8262 5.27924 14.8959 5.22171 14.9691 5.2284C15.0996 5.2406 15.2018 5.14646 15.3282 5.16593C15.378 5.17348 15.4313 5.1607 15.4804 5.17029C15.4978 5.17377 15.5247 5.22375 15.5178 5.23915C15.5001 5.27866 15.466 5.3112 15.4385 5.34636C15.4324 5.35973 15.4258 5.37251 15.4191 5.38529C16.2501 5.4588 16.9628 5.6465 17.5936 5.95826C17.7748 6.04775 17.9443 6.1538 18.1087 6.26014C18.1133 6.25433 18.1185 6.2491 18.1246 6.24532C18.2126 6.19011 18.3052 6.14159 18.3989 6.09685C18.3998 6.09627 18.4009 6.09598 18.4018 6.09569C18.4316 6.01637 18.4611 5.93734 18.4901 5.85744C18.5141 5.79119 18.5459 5.74151 18.5818 5.70345C18.5748 5.70374 18.5676 5.70345 18.5607 5.70345C18.4741 5.70606 18.3873 5.69386 18.3005 5.69357C18.2357 5.69328 18.1706 5.69792 18.1064 5.70664C17.9744 5.72495 17.8433 5.74935 17.7111 5.76649C17.6914 5.76911 17.6567 5.74993 17.6501 5.7325C17.644 5.71681 17.6631 5.6863 17.6784 5.66916C17.6917 5.65463 17.7157 5.64998 17.7363 5.6404C17.6943 5.54074 17.7458 5.48001 17.8138 5.43323C17.9192 5.36031 18.0285 5.29348 18.1376 5.22665C18.1625 5.21126 18.1943 5.1976 18.2227 5.19876C18.4875 5.20893 18.6906 5.08051 18.8755 4.91199C18.8159 4.90792 18.7545 4.89804 18.6938 4.90066C18.5384 4.90763 18.3758 4.89514 18.2302 4.93872C18.1171 4.97271 18.0109 5.00555 17.8925 5.00526C17.83 5.00497 17.7672 5.02356 17.7047 5.03344C17.5421 5.05901 17.3804 5.10608 17.2186 5.01891C17.1839 5.00032 17.1312 5.01165 17.087 5.01484C16.9825 5.02269 16.8783 5.03809 16.7736 5.04274C16.6573 5.04797 16.5369 5.02705 16.4246 5.04913C16.3028 5.07324 16.2007 5.05872 16.1075 4.98346C16.0832 4.96371 16.0525 4.9178 16.0603 4.8995C16.0736 4.8687 16.113 4.84487 16.1463 4.82773C16.1845 4.80826 16.2281 4.79838 16.2698 4.78618C16.319 4.77194 16.3682 4.75567 16.4183 4.74812C16.4813 4.73853 16.5473 4.74521 16.6087 4.7304C16.7733 4.69059 16.935 4.63887 17.1 4.59936C17.2458 4.56449 17.394 4.53951 17.5413 4.50987C17.3998 4.475 17.2554 4.44595 17.1116 4.44973C16.9102 4.45496 16.7117 4.37273 16.5097 4.43375C16.5065 4.43462 16.5022 4.43316 16.4984 4.43258C16.3624 4.40963 16.2261 4.38842 16.0907 4.36198C16.0603 4.35588 16.034 4.33031 16.0059 4.31404C16.0308 4.28905 16.0519 4.25796 16.0814 4.24082C16.1191 4.21903 16.183 4.22019 16.2007 4.19085C16.2441 4.11763 16.3063 4.09787 16.3792 4.09438C16.488 4.08915 16.5881 4.06765 16.663 3.97845C16.6761 3.96306 16.703 3.95754 16.7244 3.95085C16.909 3.89536 17.0936 3.83899 17.2791 3.78698C17.359 3.76461 17.4417 3.75154 17.523 3.7341C17.5224 3.72481 17.5216 3.71551 17.521 3.70621C17.4018 3.70621 17.2826 3.70853 17.1634 3.70563C17.0282 3.70243 16.8911 3.70824 16.7591 3.68529C16.6428 3.66495 16.6289 3.57779 16.7195 3.49992C16.7496 3.47406 16.7904 3.45401 16.8294 3.44646C16.9779 3.4174 17.1278 3.39445 17.286 3.36743C17.2519 3.32356 17.2201 3.25702 17.1674 3.22012C17.0603 3.14545 16.9365 3.14748 16.8095 3.17102C16.7649 3.17915 16.7137 3.1501 16.6654 3.13819C16.6929 3.09315 16.7186 3.04637 16.7493 3.00366C16.7588 2.9903 16.7814 2.98449 16.7993 2.97984C16.9183 2.94933 17.0375 2.91998 17.1564 2.89006C17.0933 2.85926 17.0227 2.84822 16.9524 2.83602C16.8381 2.81597 16.7137 2.81597 16.6124 2.76774C16.521 2.72444 16.4515 2.73229 16.3685 2.76309C16.1946 2.82817 16.0152 2.84328 15.834 2.8026C15.8042 2.79592 15.7802 2.76309 15.7536 2.74217C15.7776 2.71776 15.7976 2.68202 15.8265 2.67127C15.9324 2.63263 16.0412 2.60241 16.1457 2.56987C16.0334 2.4769 15.8528 2.62798 15.7681 2.44959C15.6234 2.53675 15.6234 2.53646 15.3832 2.51002C15.3664 2.50828 15.3482 2.51932 15.3306 2.52222C15.2281 2.53966 15.1216 2.58237 15.0241 2.56755C14.8956 2.54808 14.788 2.5568 14.6818 2.64251C14.7165 2.65384 14.7562 2.65558 14.7782 2.6765C14.8184 2.71428 14.8603 2.75873 14.8792 2.80899C14.9061 2.88134 14.8505 2.92318 14.7895 2.94032C14.7327 2.9563 14.672 2.95717 14.6129 2.96386C14.5342 2.97257 14.4555 2.98042 14.3768 2.98884C14.3875 3.06322 14.3922 3.12424 14.3653 3.14516C14.3311 3.17189 14.2721 3.16928 14.2235 3.17392C14.1928 3.17683 14.1575 3.17741 14.1309 3.16521C14.0912 3.14719 14.038 3.12308 14.027 3.08937C14.0169 3.05858 14.0455 3.0025 14.0733 2.97374C14.1326 2.91272 14.2035 2.86275 14.2686 2.80725C14.3569 2.73171 14.433 2.61694 14.5342 2.58731C14.7021 2.53791 14.8123 2.36765 15.0105 2.38276C15.0649 2.38683 15.1266 2.31012 15.1827 2.26741C15.2183 2.24039 15.2455 2.19594 15.2848 2.18054C15.4587 2.11139 15.6358 2.05008 15.8118 1.98587C15.6983 1.96408 15.5794 1.96059 15.4611 1.96495C15.3424 1.96931 15.2267 1.96902 15.1245 2.06083C15.0334 2.14276 14.8826 2.14189 14.8013 2.07797C14.8496 2.04369 14.8899 1.99836 14.9391 1.98383C15.027 1.95827 15.0968 1.91933 15.1607 1.8496C15.2157 1.78946 15.347 1.77842 15.7345 1.71711C15.7053 1.69009 15.6732 1.68835 15.6425 1.68021C15.582 1.66365 15.5201 1.64825 15.4634 1.6221C15.4443 1.61338 15.4391 1.57416 15.4275 1.54888C15.4501 1.53988 15.4721 1.52767 15.4955 1.52215C15.5366 1.51256 15.5785 1.50733 15.6205 1.50036C15.562 1.45039 15.4923 1.41843 15.4689 1.36555C15.4075 1.22754 15.2414 1.28361 15.1665 1.18192C15.0612 1.23451 14.9796 1.1578 14.8884 1.13165C14.7029 1.07848 14.661 0.954128 14.7869 0.808854C14.8404 0.747257 14.9093 0.699317 14.9553 0.659221C14.8916 0.639754 14.81 0.611861 14.727 0.59007C14.6879 0.579901 14.6459 0.577577 14.6054 0.577867C14.3916 0.579029 14.2157 0.676073 14.0441 0.793745C13.8968 0.894856 13.823 0.893694 13.7078 0.788515C13.6277 0.715297 13.5496 0.71181 13.4596 0.747838C13.3719 0.782704 13.2862 0.822219 13.198 0.855342C13.1138 0.886721 13.0351 0.865801 12.9868 0.792292C12.928 0.702803 12.8447 0.678107 12.7489 0.659221C12.6968 0.649052 12.6499 0.612442 12.6007 0.588036C12.5102 0.547359 12.3837 0.618835 12.3293 0.5C12.2477 0.512784 12.1708 0.524115 12.0938 0.53719C12.0773 0.540096 12.062 0.549103 12.046 0.554914C11.9783 0.57932 11.9109 0.603726 11.8429 0.627551C11.8024 0.641788 11.7576 0.648761 11.7214 0.670262C11.6395 0.718783 11.5614 0.773988 11.4653 0.837327C11.474 0.928269 11.3999 0.950642 11.301 0.948317C11.2729 0.947736 11.2445 0.967203 11.2162 0.967784C11.149 0.969237 11.081 0.97098 11.0151 0.960811C10.961 0.952385 10.9103 0.922458 10.8562 0.910836C10.7746 0.893113 10.6916 0.883234 10.6027 0.868997C10.5585 0.990447 10.0486 1.19761 9.8394 1.06047C9.81423 1.09301 9.77806 1.12207 9.76619 1.15897C9.73465 1.25746 9.69385 1.2595 9.59865 1.22376C9.51648 1.19296 9.40131 1.19209 9.32203 1.22666C9.20686 1.27693 9.04598 1.27519 8.94876 1.15751C8.87063 1.25688 8.79482 1.3516 8.72132 1.44777C8.6892 1.4899 8.66171 1.53523 8.63191 1.5791C8.6267 1.57707 8.6212 1.57532 8.61599 1.57329C8.58561 1.61193 8.55494 1.65028 8.51877 1.69619C8.52166 1.70345 8.54134 1.72931 8.53845 1.75256C8.53063 1.81677 8.52976 1.8926 8.49388 1.93822C8.47536 1.96175 8.38509 1.93967 8.33271 1.92166C8.27426 1.90161 8.22218 1.86326 8.16749 1.83275C8.20308 1.98906 8.20887 1.99662 8.15881 2.03497C8.09949 2.0803 8.03149 2.11749 7.96204 2.14596C7.9088 2.16775 7.84804 2.17037 7.79074 2.18141C7.77107 2.35283 7.73316 2.35632 7.56533 2.36387C7.45827 2.36852 7.357 2.36968 7.25283 2.35051C7.24067 2.34818 7.22447 2.3662 7.21376 2.37288C7.27106 2.4705 7.3243 2.56116 7.37957 2.65529C7.18541 2.70178 6.99819 2.61375 6.83817 2.76512C6.77394 2.82585 6.64344 2.81568 6.54968 2.83631C6.60958 2.88628 6.67324 2.93945 6.75281 3.0057C6.78783 3.01587 6.8483 3.03359 6.9082 3.05131C6.96954 3.06962 7.02973 3.09838 7.09194 3.1039C7.15618 3.10971 7.20277 3.12656 7.18107 3.19397C7.17036 3.22768 7.12233 3.25499 7.08529 3.27358C6.96462 3.3346 6.82255 3.3683 6.72388 3.45343C6.60177 3.55861 6.5031 3.68268 6.34222 3.65362C6.2991 3.70592 6.27393 3.7681 6.23457 3.77914C6.06935 3.82504 5.91657 3.91976 5.7334 3.89884C5.5948 3.88315 5.45475 3.87909 5.31499 3.87792C5.22703 3.87734 5.15064 3.91076 5.09855 3.98601C5.3937 4.05487 5.67495 4.12024 5.96287 4.18736V4.33322C5.79764 4.34658 5.6301 4.36314 5.46228 4.37244C5.29561 4.38174 5.12836 4.38319 4.9614 4.38842L4.9585 4.42212C5.10318 4.48895 5.18912 4.62812 5.35145 4.68768C5.55053 4.7609 5.71778 4.91664 5.93682 4.95325C5.98283 4.9608 6.03144 4.96254 6.07774 4.95732C6.17323 4.94686 6.27132 4.90676 6.34627 5.00903C6.35668 5.02327 6.39025 5.0314 6.40906 5.02676C6.58933 4.98143 6.68539 5.1145 6.79477 5.21271C6.81937 5.23479 6.82805 5.28651 6.82457 5.32283C6.82255 5.34375 6.78407 5.36902 6.75744 5.37774C6.66774 5.40708 6.57717 5.43469 6.48487 5.45386C6.26582 5.49977 6.04707 5.52679 5.82889 5.44108C5.79909 5.42946 5.758 5.44428 5.7227 5.45067C5.63965 5.46578 5.55661 5.49716 5.47385 5.49686C5.35753 5.49628 5.23976 5.45415 5.12546 5.46374C4.99178 5.47507 4.85144 5.50268 4.73165 5.5602C4.61532 5.61628 4.52128 5.71943 4.40727 5.81008C4.4203 5.883 4.43737 5.97947 4.45531 6.08087C4.5045 6.10382 4.56121 6.12474 4.61243 6.15496C4.71428 6.21481 4.71544 6.27147 4.65005 6.37461C4.61619 6.42778 4.61214 6.49984 4.59478 6.56318C4.59189 6.57364 4.58899 6.58381 4.58668 6.59136C4.55601 6.60299 4.52881 6.61315 4.47556 6.6332C4.69895 6.6611 4.69895 6.6611 4.72933 6.74623C4.88935 6.7654 5.04271 6.77732 5.19375 6.80317C5.37229 6.83397 5.53954 6.93915 5.73196 6.8793C5.74961 6.87378 5.77391 6.89034 5.79562 6.89557C5.91975 6.9255 6.04389 6.93247 6.16542 6.88569C6.24152 6.85664 6.3561 6.89789 6.40327 6.96762C6.41774 6.98912 6.45883 7.01063 6.48082 7.00511C6.62752 6.96675 6.70999 6.79969 6.7968 6.94932C6.80692 6.96675 6.85293 6.97634 6.87666 6.96966C7.01034 6.93189 7.25977 6.77586 7.4901 6.83048C7.71348 6.70439 7.94613 6.73199 8.20192 6.78254C8.0882 6.69538 8.13855 6.65005 8.2242 6.61345C8.24504 6.60444 8.26847 6.59805 8.28497 6.58381C8.35904 6.52076 8.48202 6.50042 8.47392 6.36183C8.47305 6.34672 8.53874 6.30692 8.5587 6.31534C8.5969 6.33103 8.63538 6.36764 8.65448 6.40541C8.68631 6.46875 8.69933 6.54284 8.79655 6.52948C8.8035 6.5286 8.82057 6.55969 8.82317 6.57742C8.83012 6.62739 8.83185 6.67824 8.83417 6.70933C8.92416 6.75175 9.06537 6.78022 9.07376 6.83048C9.09344 6.95048 9.18863 6.98099 9.24072 7.05595C9.28123 7.11435 9.27949 7.21052 9.27313 7.28781C9.27139 7.30989 9.1895 7.33314 9.14176 7.34272C8.93313 7.38398 8.73955 7.30088 8.61744 7.16113C8.37669 6.8854 8.08357 6.97489 7.79942 6.98419C7.6805 6.98825 7.56273 7.02748 7.42962 7.05363C7.44409 7.12568 7.37378 7.11319 7.3052 7.11464C7.20248 7.11697 7.11827 7.23435 6.99703 7.16084C6.94119 7.12685 6.88766 7.15358 6.86335 7.22069C6.85351 7.24771 6.84107 7.27415 6.83383 7.2913C6.75195 7.2913 6.6799 7.28607 6.609 7.29246C6.44118 7.30699 6.26553 7.35057 6.18104 7.10099C6.16686 7.15706 6.15326 7.18002 6.1576 7.19803C6.17815 7.27968 6.14198 7.29449 6.06732 7.31134C5.90036 7.34912 5.73861 7.41071 5.57252 7.45429C5.46488 7.48248 5.35406 7.50253 5.24352 7.51386C5.06788 7.53158 4.89108 7.53855 4.71486 7.55018C4.6023 7.55773 4.48974 7.56441 4.37776 7.57458C4.28951 7.58272 4.20154 7.59463 4.11415 7.60858C4.10113 7.61061 4.08001 7.63589 4.08204 7.64693C4.09853 7.74339 4.02706 7.74107 3.96919 7.74804C3.79875 7.7678 3.62803 7.78814 3.45673 7.80092C3.33144 7.81022 3.20325 7.82242 3.0797 7.80673C2.87136 7.78029 2.65666 7.75792 2.46105 7.68732C2.25358 7.61235 2.05682 7.64054 1.87163 7.65041C1.88638 7.71986 1.89969 7.7832 1.90982 7.83085C1.95207 7.86368 2.02238 7.89186 2.0273 7.92876C2.03396 7.97903 1.99055 8.03597 1.9703 8.08682C1.97261 8.08682 2.00357 8.07985 2.02383 8.09147C2.22349 8.20769 2.45063 8.13011 2.66013 8.18561C2.77385 8.21582 2.89711 8.20885 3.01633 8.21815C3.1014 8.22483 3.1613 8.27713 3.15088 8.35413C3.14423 8.40236 3.08057 8.46947 3.03224 8.48022C2.9139 8.50637 2.78253 8.53281 2.66968 8.50521C2.56522 8.47964 2.48536 8.49533 2.38813 8.53601C2.47957 8.60284 2.52239 8.68186 2.44108 8.78414C2.54091 8.78414 2.63177 8.77426 2.71945 8.78646C2.85979 8.80564 2.99926 8.83586 3.1367 8.87043C3.16159 8.87653 3.17634 8.92476 3.19573 8.95324C3.16853 8.96893 3.1367 9.00292 3.115 8.9974C2.99521 8.96573 2.87744 9.12524 2.75851 8.99973C2.75533 8.99624 2.73883 9.00786 2.72813 9.00873C2.6581 9.01454 2.58779 9.01803 2.51776 9.02442C2.44022 9.0314 2.36325 9.04127 2.2857 9.04825C2.24895 9.05144 2.21191 9.05115 2.17487 9.05202C1.96538 9.05667 1.86381 9.06684 1.80739 9.02994C1.69628 8.95789 1.59587 8.86956 1.44685 8.88787C1.402 8.89338 1.35107 8.86898 1.30593 8.85126C1.21363 8.81523 1.13347 8.75828 1.01947 8.80535C0.926582 8.8437 0.817784 8.84283 0.736763 8.8559C0.728661 8.94714 0.721427 9.03111 0.713904 9.1174C0.764542 9.1235 0.847298 9.11711 0.915587 9.14587C0.999501 9.18103 1.07705 9.21648 1.17138 9.20514C1.19626 9.20224 1.24054 9.22664 1.2498 9.24902C1.29262 9.35245 1.24719 9.43381 1.1381 9.4556C1.09904 9.46344 1.05679 9.45356 1.01657 9.4585C0.933238 9.46896 0.850481 9.48378 0.767725 9.49656C0.767146 9.514 0.766857 9.53114 0.766278 9.54857C0.969697 9.6093 1.28626 9.6953 1.29378 9.69763C1.45437 9.74876 1.61236 9.80891 1.77296 9.86033C1.86005 9.88823 1.94975 9.9106 2.03974 9.92716C2.08402 9.93529 2.13176 9.92687 2.17748 9.92251C2.6555 9.87486 2.55509 9.87108 2.62425 9.90043C2.66302 9.91699 2.70266 9.9321 2.74028 9.95127C2.7698 9.96638 2.81436 9.98323 2.81985 10.0068C2.82535 10.0312 2.79613 10.0858 2.77414 10.0904C2.58345 10.1311 2.38726 10.2055 2.19976 10.1887C1.91908 10.1637 1.71422 10.3302 1.47029 10.3949C1.49662 10.4069 1.52671 10.4016 1.5461 10.4135C1.60426 10.4496 1.69194 10.4827 1.70611 10.5344C1.72868 10.6158 1.66011 10.6814 1.57619 10.7073C1.34065 10.7793 1.03914 10.707 0.730108 10.8682C0.685257 10.8918 0.65256 10.9386 0.614075 10.9746C0.658347 11.0004 0.700015 11.0373 0.747759 11.0498C0.86003 11.0789 0.975195 11.0963 1.0892 11.1181C1.11033 11.1222 1.14071 11.1364 1.15112 11.1277C1.27786 11.0176 1.3667 11.1321 1.45524 11.187C1.51167 11.2218 1.61005 11.2617 1.55189 11.3697C1.41386 11.4185 1.26282 11.4482 1.18845 11.6004C1.19713 11.6155 1.20437 11.6286 1.21276 11.6414C1.31432 11.7986 1.4046 11.8183 1.584 11.7396C1.63754 11.7161 1.7038 11.7219 1.78395 11.7117C1.77064 11.7878 1.76196 11.8375 1.74952 11.909C1.83372 11.9346 1.935 12.0023 2.01139 11.9811C2.19773 11.9288 2.36788 11.9616 2.5441 12.0049C2.74317 12.054 2.76806 12.115 2.64566 12.2658C2.78368 12.3004 2.89393 12.4198 3.05481 12.3997C3.08259 12.3962 3.12079 12.4738 3.15406 12.5139C3.11269 12.5296 3.07275 12.5514 3.02993 12.559C2.9981 12.5648 2.9628 12.5462 2.92981 12.5491C2.88728 12.5529 2.83403 12.5543 2.80625 12.5796C2.67981 12.6941 2.53831 12.697 2.38234 12.6679C2.33431 12.6589 2.24548 12.6737 2.23246 12.7031C2.15838 12.8698 2.00184 12.8815 1.86497 12.8951C1.6549 12.916 1.44077 12.8919 1.22954 12.9047C0.95928 12.921 0.689887 12.9526 0.420784 12.9832C0.37304 12.9887 0.328479 13.0201 0.282471 13.0395C0.309092 13.0631 0.328479 13.0619 0.347866 13.0631C0.667896 13.084 0.61205 13.0491 0.991399 13.2022C1.02786 13.217 1.08255 13.2438 1.08573 13.2705C1.09007 13.306 1.06258 13.3649 1.03133 13.3821C0.928029 13.439 0.842379 13.5564 0.6977 13.4992C0.683521 13.4937 0.653717 13.5006 0.645615 13.512C0.55794 13.6346 0.434963 13.6401 0.298096 13.6215C0.31893 13.6462 0.340632 13.6665 0.365806 13.6726C0.573565 13.722 0.781035 13.7755 0.99082 13.8144C1.14418 13.8429 1.14563 13.8336 1.13 14.0012C0.975484 14.0782 0.815179 14.1076 0.62102 14.023C0.642722 14.0896 0.654586 14.1253 0.668475 14.168C0.811128 14.0829 0.939025 14.0779 1.07821 14.1634C1.16212 14.2148 1.26513 14.2444 1.36351 14.2607C1.51514 14.286 1.67573 14.2369 1.82012 14.3371C1.8942 14.3885 1.92718 14.4772 1.85427 14.5306C1.76688 14.5948 1.67428 14.6495 1.55246 14.6282C1.36091 14.5948 1.28568 14.6364 1.17572 14.829C1.28307 14.8438 1.38001 14.8656 1.47752 14.8685C1.76254 14.8778 2.04814 14.8746 2.33315 14.8877C2.39652 14.8906 2.45787 14.9394 2.52008 14.967C2.48854 15.0185 2.45671 15.0699 2.42546 15.1219C2.42199 15.1277 2.4217 15.1353 2.42199 15.1344C2.4868 15.2579 2.59473 15.2355 2.69948 15.2291C2.86123 15.2192 3.02588 15.2279 3.14683 15.0841C3.16651 15.0609 3.22669 15.0513 3.25852 15.0626C3.44429 15.1289 3.56785 15.3401 3.47409 15.5307C3.77532 15.6582 4.06265 15.6147 4.34622 15.4729C4.41885 15.4366 4.50045 15.402 4.57973 15.3982C4.75277 15.3898 4.92812 15.3889 5.09971 15.4095C5.23253 15.4255 5.36303 15.4737 5.49034 15.5194C5.52275 15.531 5.54793 15.5839 5.55892 15.6228C5.56326 15.6379 5.52304 15.6792 5.49642 15.6876C5.34335 15.7364 5.18825 15.7779 5.0346 15.8247C4.99178 15.8378 4.94288 15.85 4.91192 15.8791C4.82684 15.9587 4.72846 15.9726 4.62024 15.963C4.60288 15.9616 4.58494 15.97 4.56353 15.9744C4.56121 16.0592 4.57395 16.1551 4.45791 16.1679C4.27504 16.1879 4.09072 16.2193 3.90842 16.2129C3.66044 16.2042 3.54585 16.3704 3.37369 16.3233C3.28485 16.2992 3.23595 16.3265 3.16853 16.366C3.0933 16.4102 2.99897 16.4674 2.92431 16.4546C2.81783 16.436 2.72234 16.4482 2.61991 16.4593C2.3971 16.484 2.17343 16.4971 1.95004 16.5165C1.93384 16.518 1.91821 16.5302 1.92226 16.5284C1.96712 16.5555 2.05508 16.5807 2.05913 16.6153C2.07128 16.7257 2.13523 16.7376 2.2203 16.7493C2.39768 16.7731 2.56204 16.8233 2.63148 17.0093C2.67836 17.016 2.73131 17.0073 2.75504 17.0299C2.84242 17.1122 2.94775 17.1063 3.05308 17.1107C3.12484 17.1136 3.19747 17.1122 3.26749 17.1244C3.29296 17.129 3.33578 17.1775 3.33057 17.19C3.3025 17.26 3.26199 17.3251 3.22264 17.3981C3.2565 17.4236 3.2918 17.4733 3.33144 17.4768C3.61356 17.5015 3.8899 17.466 4.16016 17.3774C4.19662 17.3655 4.24668 17.3885 4.28864 17.4012C4.3196 17.4108 4.34767 17.4422 4.37718 17.4428C4.58841 17.4466 4.79993 17.4448 5.01146 17.4448C4.9614 17.3501 4.90902 17.2574 4.86475 17.161C4.85665 17.1435 4.87748 17.106 4.89398 17.0851C4.99091 16.9628 5.11939 16.9137 5.25538 16.9361C5.28779 16.882 5.30255 16.8219 5.33669 16.8068C5.45186 16.7559 5.57397 16.7211 5.69347 16.6801C5.51262 16.6731 5.33612 16.6836 5.15961 16.6978C5.11302 16.7016 5.05631 16.74 5.02303 16.7237C4.91076 16.6682 4.8199 16.7109 4.72354 16.7583C4.49119 16.8724 4.2435 16.8803 3.99262 16.8533C3.9715 16.8509 3.9443 16.8213 3.93736 16.7986C3.93244 16.783 3.95327 16.744 3.96948 16.7394C4.05831 16.7135 4.15438 16.7065 4.23858 16.6711C4.40641 16.6005 4.60925 16.6031 4.73541 16.4398C4.74611 16.4262 4.7765 16.4267 4.7982 16.4227C4.93246 16.3977 5.06701 16.3736 5.20938 16.3474C5.12691 16.1623 5.33756 16.1708 5.78983 16.1472C5.72096 15.9104 5.78809 15.9924 6.18451 15.9828C6.22965 15.9816 6.27451 15.9627 6.31936 15.952C6.30084 15.9296 6.28724 15.936 6.27566 15.9337C6.23515 15.925 6.19493 15.9131 6.15471 15.9026C6.19696 15.8381 6.26525 15.6521 6.58441 15.7201C6.96549 15.8012 7.26672 15.8573 7.58443 16.2576C7.64057 16.3282 7.61105 16.3919 7.52193 16.3959C7.38333 16.4018 7.24357 16.4003 7.10525 16.3896C6.94234 16.3771 6.79882 16.4128 6.64865 16.4814C6.495 16.5514 6.31993 16.5778 6.15211 16.6118C6.04128 16.6342 5.92612 16.6362 5.81298 16.6476C5.86246 16.6711 5.90991 16.6734 5.95592 16.6656C6.18162 16.6275 6.41629 16.6133 6.62984 16.5386C6.79738 16.4799 6.93829 16.4128 7.12811 16.461C7.29565 16.5035 7.47997 16.4866 7.65677 16.4837C7.75371 16.4819 7.80753 16.5241 7.8599 16.5979C7.93832 16.7086 8.02628 16.8132 8.1128 16.9178C8.24012 17.0718 8.36599 17.2272 8.49967 17.3757C8.67358 17.5686 8.83446 17.7822 9.03846 17.9367C9.27284 18.1143 9.47828 18.3046 9.64264 18.5492C9.7442 18.7003 9.87123 18.8357 10.0556 18.9031C10.1479 18.9368 10.2306 18.999 10.3139 19.0542C10.3435 19.0739 10.366 19.1088 10.3834 19.1416C10.4812 19.3285 10.5718 19.5191 10.6745 19.7033C10.739 19.8189 10.7463 19.9377 10.7373 20.0641C10.7069 20.4907 10.6629 20.9175 10.7381 21.3446C10.7517 21.4222 10.7463 21.5032 10.7454 21.5828C10.7428 21.831 10.7405 22.0794 10.7332 22.3275C10.7272 22.5422 10.7419 22.7628 10.6968 22.9696C10.6502 23.184 10.6389 23.2285 10.3652 23.2224C10.0446 23.2154 9.72366 23.2259 9.40305 23.2282C9.28239 23.2291 9.15941 23.2433 9.04135 23.2256C8.72971 23.1785 8.26876 23.3125 7.98577 23.3973C7.95741 23.4057 7.92529 23.4197 7.90735 23.4412C7.79682 23.5751 7.65156 23.5894 7.50196 23.5833C7.28552 23.5745 7.06822 23.5809 6.8538 23.5809C6.97128 23.7181 7.08847 23.8549 7.2155 24.0031C7.26006 23.9932 7.32864 23.9688 7.39837 23.9648C7.6015 23.9526 7.8055 23.9546 8.00834 23.9389C8.1455 23.9284 8.28063 23.893 8.41749 23.8764C8.61484 23.8523 9.00489 23.8491 9.19934 23.8116C9.50432 23.7527 9.75404 23.8291 9.97395 24.0481C10.0877 24.1615 10.2193 24.2585 10.3519 24.35C10.395 24.3797 10.4679 24.5075 10.524 24.4997C10.7217 24.4718 10.9178 24.3073 11.1146 24.2742C11.3418 24.2361 11.5672 24.2004 11.7662 24.0647C11.88 23.9871 12.011 23.9345 12.1363 23.8744C12.2382 23.8256 12.3426 23.8459 12.4462 23.8006C12.5119 23.7718 12.5756 23.7268 12.6439 23.7187C12.9318 23.6847 13.2206 23.6553 13.5099 23.6393C13.5805 23.6356 13.656 23.6852 13.7264 23.7163C13.8207 23.7582 13.9098 23.75 14.0062 23.7866C14.1115 23.8267 14.2212 23.8561 14.3305 23.8828C14.3948 23.8985 14.47 23.922 14.5276 23.9032C14.8146 23.8099 15.1092 23.816 15.4032 23.8215C15.9278 23.8308 16.7041 23.8523 17.2287 23.8575C17.4417 23.8596 17.6506 23.8634 17.8529 23.9392C17.9015 23.9575 17.9556 23.9665 18.008 23.9697C18.3072 23.9886 18.6064 24.0043 18.8813 24.02C18.7942 23.9621 18.6807 23.8843 18.5647 23.8111C18.5207 23.7832 18.4721 23.7553 18.4221 23.746C18.1857 23.7012 17.9516 23.639 17.7056 23.6713C17.5566 23.6908 17.4293 23.6388 17.3095 23.5408C17.2423 23.4859 17.1431 23.4168 17.056 23.4118C16.6301 23.3877 15.9509 23.3866 15.5253 23.3595C15.1917 23.3383 14.8601 23.2825 14.5264 23.2576C14.2154 23.2343 13.9026 23.2311 13.5906 23.2186C13.5608 23.2175 13.531 23.2119 13.5009 23.2096C13.2845 23.1925 13.0678 23.1756 12.8513 23.1594C12.8403 23.1585 12.8288 23.162 12.8178 23.1625C12.6456 23.1721 12.4731 23.1782 12.3016 23.1922C12.1716 23.2029 12.1401 23.1317 12.1357 23.0213C12.1297 22.8665 12.1219 22.711 12.1065 22.5568C12.0799 22.2903 12.044 22.0248 12.0177 21.7583C12.011 21.6924 12.0333 21.6238 12.0296 21.557C12.0226 21.43 12.011 21.3027 11.9934 21.1769C11.9413 20.8039 12.0154 20.4253 11.9407 20.0534C11.9401 20.0502 11.9396 20.0467 11.9387 20.0432C11.9668 20.0226 11.9864 19.9889 11.9807 19.9465C11.9786 19.9322 11.9766 19.918 11.9746 19.9037C11.0507 19.5141 10.2295 18.9153 9.4751 18.0846ZM15.2501 4.56943C15.2351 4.5735 15.2252 4.60052 15.2154 4.61824C15.2102 4.62783 15.2113 4.64091 15.2064 4.65079C15.159 4.74202 14.8169 4.82453 14.7284 4.76933C14.7113 4.75858 14.6827 4.75567 14.663 4.76148C14.5785 4.78647 14.5423 4.73911 14.5241 4.66996C14.5047 4.59674 14.5204 4.52614 14.597 4.50202C14.648 4.48604 14.7116 4.48924 14.7634 4.50464C14.8439 4.52846 14.9194 4.5703 14.9799 4.59674C15.0866 4.53486 15.181 4.48023 15.2793 4.42299C15.3144 4.50115 15.3285 4.54764 15.2501 4.56943ZM15.6361 4.38842C15.5861 4.47297 15.5644 4.45786 15.3633 4.48314C15.3337 4.41195 15.3714 4.35588 15.4321 4.33583C15.4906 4.31665 15.5597 4.32799 15.624 4.33118C15.6298 4.33147 15.6439 4.37534 15.6361 4.38842ZM13.9934 4.20799C14.1158 4.18097 14.137 4.06155 14.2038 3.98543C14.2495 3.93342 14.2787 3.86863 14.3655 3.90262C14.3806 3.90843 14.4121 3.90843 14.4156 3.90117C14.4576 3.81575 14.5539 3.79134 14.6077 3.73149C14.6734 3.65856 14.7327 3.63328 14.8248 3.62544C14.8956 3.61905 14.9631 3.57227 15.0316 3.54292C15.104 3.51241 15.176 3.48162 15.2481 3.45053C15.2675 3.4421 15.2877 3.43484 15.3048 3.42263C15.3653 3.37992 15.4243 3.33547 15.4839 3.29189C15.4932 3.29712 15.5024 3.30264 15.5117 3.30787C15.5175 3.27474 15.5212 3.24104 15.5293 3.20821C15.5473 3.13586 15.5866 3.10448 15.6685 3.11262C15.8482 3.13005 16.0291 3.13586 16.209 3.14661C16.2594 3.25295 16.2229 3.33867 16.1118 3.36975C16.0647 3.38312 16.012 3.38196 15.9689 3.4023C15.9316 3.42002 15.8786 3.45721 15.8769 3.4883C15.8702 3.60248 15.7947 3.61759 15.7105 3.63009C15.7032 3.63125 15.6946 3.62805 15.6879 3.63067C15.4932 3.70243 15.3031 3.79483 15.1025 3.84044C14.9307 3.87938 14.8007 3.97787 14.6561 4.05952C14.5149 4.13913 14.3696 4.21206 14.2229 4.28092C14.163 4.3091 14.0953 4.32421 14.0296 4.33351C14.0056 4.33699 13.9587 4.30968 13.9549 4.28992C13.9503 4.26494 13.974 4.21235 13.9934 4.20799ZM13.1855 4.44188C13.2093 4.42881 13.2466 4.42793 13.2738 4.43549C13.316 4.4474 13.3551 4.47123 13.3953 4.49011C13.3644 4.52846 13.3377 4.57263 13.3004 4.60343C13.277 4.6226 13.237 4.62202 13.1745 4.63771C13.1418 4.61069 13.0979 4.57408 13.0539 4.53747C13.0976 4.50493 13.1384 4.46774 13.1855 4.44188ZM12.7064 4.82657C12.7017 4.85766 12.6682 4.8841 12.6308 4.93378C12.5987 4.88351 12.5663 4.85504 12.5686 4.83005C12.5709 4.8071 12.6112 4.77049 12.6334 4.77136C12.6604 4.77253 12.709 4.81059 12.7064 4.82657ZM10.4297 3.84974C10.4624 3.83173 10.5017 3.81923 10.5255 3.79308C10.6389 3.6667 10.8252 3.61091 10.9925 3.642C10.9991 3.63967 11.0055 3.63735 11.0116 3.63532C11.3111 3.53711 11.6297 3.40491 11.9526 3.42932C12.1384 3.44326 12.3785 3.4976 12.5536 3.57052C12.5993 3.5897 12.6413 3.61294 12.6815 3.63909C12.6803 3.63967 12.6792 3.63997 12.678 3.64055C12.4668 3.73904 12.2631 3.85962 12.0814 4.01187C12.0345 4.04819 11.9919 4.08974 11.9497 4.13157C11.9057 4.17167 11.8675 4.21758 11.8287 4.26319C11.7512 4.35326 11.6844 4.45699 11.6242 4.55229C11.5955 4.59791 11.5674 4.64381 11.5394 4.68972C11.5582 4.4811 11.592 4.26232 11.4928 4.15918C11.3956 4.05836 11.2353 4.14407 11.0987 4.12053C11.0301 4.10862 10.9641 4.08509 10.9013 4.05342C10.781 4.13274 10.6441 4.09032 10.5093 4.06882C10.4711 4.06271 10.43 4.03802 10.4022 4.01012C10.373 3.98049 10.3579 3.93662 10.3368 3.89884C10.3675 3.88228 10.399 3.86659 10.4297 3.84974ZM7.6232 3.25382C7.62118 3.2422 7.66256 3.21983 7.68657 3.20734C7.76181 3.16869 7.8353 3.12163 7.91546 3.09809C7.98924 3.07659 8.07084 3.0763 8.14868 3.07746C8.17414 3.07775 8.19903 3.11175 8.22681 3.13209C8.30378 3.04899 8.30146 3.06148 8.39377 3.17334C8.46466 3.25935 8.57462 3.31223 8.66345 3.38428C8.68747 3.40375 8.70975 3.4392 8.71119 3.46825C8.71235 3.49353 8.68255 3.54263 8.66692 3.54263C8.51153 3.5406 8.35615 3.53072 8.20076 3.52287C8.19758 3.52607 8.19411 3.52927 8.19093 3.53275C8.14405 3.53508 8.08936 3.55396 8.05145 3.53624C7.92153 3.4761 7.79624 3.4052 7.6724 3.33315C7.64751 3.31862 7.62812 3.28259 7.6232 3.25382ZM8.28989 4.81407C8.27802 4.8472 8.20539 4.85911 8.1591 4.878C8.14607 4.88322 8.12929 4.87887 8.11425 4.87887L8.09891 4.90763C8.00718 4.85766 7.91459 4.80943 7.82518 4.75625C7.81273 4.7487 7.80463 4.70338 7.81187 4.69756C7.87437 4.64788 7.936 4.59035 8.00805 4.56042C8.072 4.53399 8.12003 4.57931 8.14087 4.64846C8.1455 4.66415 8.17241 4.68071 8.19093 4.68362C8.26905 4.69524 8.31564 4.74318 8.28989 4.81407ZM9.25519 5.36089C9.14118 5.32776 9.03035 5.29493 8.90477 5.33009C8.80755 5.3574 8.74997 5.27779 8.71177 5.18714C8.54597 5.20719 8.42733 5.12671 8.35355 4.98695C8.33069 4.94366 8.35239 4.87712 8.35355 4.82105C8.41142 4.83005 8.47016 4.83557 8.52687 4.84981C8.5642 4.85911 8.59719 4.88555 8.63451 4.89688C8.7954 4.94511 8.97856 4.91722 9.11456 5.05494C9.16172 5.10259 9.24303 5.1145 9.29743 5.15721C9.33129 5.18365 9.3582 5.23624 9.36225 5.27953C9.36862 5.34665 9.33331 5.38355 9.25519 5.36089ZM9.04772 7.8477C9.08012 7.77157 9.127 7.75966 9.19905 7.76722C9.24795 7.77245 9.2792 7.78639 9.28759 7.81951C9.19124 7.87995 9.11311 7.96043 9.03932 8.06212C9.02312 8.08421 9.00778 8.10716 8.99332 8.13011C8.99303 8.03539 9.00807 7.94067 9.04772 7.8477ZM7.64896 10.0608C7.57141 10.0608 7.56852 10.0097 7.57286 9.95244C7.57401 9.93762 7.57315 9.92251 7.57315 9.89229C7.46955 9.92542 7.40127 9.8859 7.33269 9.82024C7.2644 9.75486 7.18193 9.70489 7.09715 9.65811C7.07603 9.59361 7.08181 9.50848 6.96925 9.49773C6.95016 9.49598 6.93771 9.42451 6.9163 9.3693C6.89952 9.36378 6.86509 9.35245 6.83065 9.34112C6.83731 9.33124 6.84425 9.32136 6.85091 9.31149C6.80721 9.27284 6.76236 9.23536 6.72012 9.19497C6.6851 9.16156 6.65385 9.12408 6.61971 9.09009C6.60351 9.07382 6.57978 9.04563 6.56676 9.04912C6.48111 9.07265 6.43481 9.06626 6.37318 8.97445C6.28029 8.83527 6.25656 8.82656 6.30286 8.6685C6.28984 8.60313 6.25049 8.52787 6.27016 8.47528C6.29765 8.40207 6.38041 8.355 6.46519 8.39044C6.49905 8.40468 6.51496 8.46192 6.5384 8.49853C6.5873 8.51829 6.67122 8.52758 6.70044 8.57262C6.72243 8.60632 6.67382 8.68622 6.6553 8.75014C6.68047 8.75014 6.72764 8.7455 6.77336 8.7516C6.80779 8.75625 6.86132 8.76641 6.87 8.7885C6.93598 8.95411 7.10178 8.83411 7.13679 8.87537C7.2181 8.97067 7.30954 9.06277 7.36625 9.17231C7.41168 9.25977 7.40821 9.36989 7.51325 9.42741C7.54334 9.44398 7.56128 9.49395 7.57286 9.53201C7.59977 9.62092 7.61366 9.71419 7.64404 9.80164C7.6614 9.85191 7.71291 9.89142 7.72622 9.94198C7.74011 9.99544 7.7349 10.0608 7.64896 10.0608ZM7.84572 7.49526C7.94902 7.46592 8.16228 7.60015 8.18514 7.70533C8.21089 7.82329 8.15128 7.89448 8.00226 7.89128C7.97304 7.88402 7.91256 7.88111 7.86627 7.8538C7.82981 7.8323 7.80753 7.78262 7.78525 7.74194C7.77165 7.71724 7.77338 7.6847 7.76268 7.65768C7.72853 7.57051 7.76354 7.51851 7.84572 7.49526ZM5.96721 7.77041C5.98225 7.75995 6.00077 7.75007 6.00887 7.73526C6.06819 7.62688 6.14053 7.59521 6.22705 7.66843C6.33296 7.75821 6.45101 7.77448 6.57978 7.78552C6.77481 7.80208 6.96897 7.82823 7.16255 7.85671C7.20335 7.86281 7.24414 7.89186 7.27771 7.91917C7.38275 8.00488 7.49444 8.06648 7.63536 8.07055C7.66661 8.07142 7.6967 8.11355 7.74647 8.15132C7.89057 8.04469 8.0558 8.08711 8.21408 8.15423C8.31332 8.19636 8.41315 8.25098 8.49302 8.32187C8.54568 8.36894 8.56536 8.45436 8.59487 8.52497C8.59748 8.53107 8.55899 8.56797 8.54597 8.56477C8.41286 8.53165 8.29943 8.5764 8.17906 8.62782C8.12785 8.64961 8.02599 8.67663 7.98953 8.56971C7.98548 8.55809 7.96928 8.54502 7.95683 8.54298C7.79971 8.51683 7.66892 8.44071 7.54363 8.34512C7.51238 8.32129 7.45161 8.32449 7.40763 8.33292C7.32632 8.34831 7.24501 8.40178 7.17672 8.30648C7.17152 8.29921 7.1556 8.29979 7.14518 8.29573C7.04478 8.25563 6.94524 8.21379 6.84396 8.17631C6.813 8.16498 6.76902 8.15103 6.74587 8.16411C6.62231 8.23413 6.51959 8.17079 6.40558 8.13447C6.3072 8.10309 6.19696 8.09118 6.09366 8.09815C5.98978 8.10541 5.96084 8.04469 5.93567 7.97351C5.91107 7.90348 5.88474 7.82707 5.96721 7.77041ZM4.38094 9.21241C4.42116 9.21851 4.45965 9.23827 4.49871 9.25163C4.57308 9.2772 4.63963 9.28417 4.70879 9.22461C4.75161 9.18771 4.81498 9.13803 4.86938 9.22839C4.87864 9.24379 4.92378 9.23769 4.95243 9.24059C5.01146 9.24669 5.08466 9.21183 5.11591 9.29899C5.11823 9.30567 5.13704 9.31294 5.14398 9.31003C5.25133 9.26587 5.31065 9.33299 5.38444 9.39633C5.44463 9.44804 5.53288 9.46548 5.60696 9.5015C5.66714 9.53085 5.75019 9.5509 5.77854 9.60058C5.85291 9.73046 5.95476 9.70198 6.05372 9.66944C6.25599 9.60291 6.25251 9.59942 6.35408 9.79234C6.37057 9.82343 6.40877 9.86178 6.43886 9.86353C6.56763 9.87108 6.69697 9.86818 6.82602 9.86527C6.92151 9.86295 6.98517 9.89898 7.01266 9.99428C7.03581 10.0745 7.05577 10.1558 7.17209 10.1457C7.19929 10.1433 7.23489 10.1846 7.2589 10.2125C7.35757 10.3272 7.45538 10.4423 7.54855 10.5614C7.67297 10.7206 7.50052 10.8296 7.45798 10.8125C7.32661 10.7593 7.19814 10.6983 7.07198 10.6329C7.04246 10.6175 7.01787 10.5789 7.006 10.5454C6.97157 10.449 6.89894 10.4127 6.80721 10.4141C6.7369 10.4153 6.7016 10.3862 6.66398 10.3293C6.63562 10.2866 6.57631 10.263 6.52798 10.2354C6.46635 10.2 6.39922 10.1733 6.3399 10.1346C6.25801 10.0811 6.18625 10.0111 6.10089 9.96464C6.04707 9.93529 5.96836 9.90333 5.94637 10.0187C5.94348 10.0344 5.87461 10.0553 5.84712 10.0451C5.7062 9.99253 5.56731 9.93355 5.43045 9.8705C5.32165 9.82024 5.21921 9.75486 5.10897 9.70837C5.03287 9.67612 4.94809 9.66334 4.86678 9.64445C4.83408 9.6369 4.79646 9.64329 4.76666 9.63022C4.61909 9.56572 4.46833 9.55787 4.31294 9.6032C4.295 9.49511 4.27591 9.40243 4.26549 9.30916C4.2571 9.22665 4.31063 9.20195 4.38094 9.21241ZM4.69953 12.5325C4.66828 12.5107 4.64686 12.4747 4.6214 12.4448C4.64744 12.4247 4.67377 12.3869 4.69924 12.3878C4.79993 12.3904 4.86388 12.3733 4.78865 12.2266C4.85202 12.2382 4.89195 12.2362 4.92146 12.253C4.98889 12.2916 5.03605 12.2815 5.08813 12.2234C5.19433 12.1048 5.30834 12.0993 5.41974 12.1981C5.52999 12.1583 5.59683 12.1804 5.62721 12.2896C5.68306 12.4913 5.72675 12.6964 5.77941 12.9169C5.71836 12.9224 5.6683 12.9433 5.64226 12.9265C5.49526 12.8312 5.37576 12.9573 5.24294 12.9683C5.1434 12.9768 5.04502 12.9962 4.94577 13.0084C4.92812 13.0108 4.89629 13.0073 4.89282 12.998C4.85144 12.8887 4.74148 12.9178 4.66509 12.8809C4.60086 12.8495 4.5126 12.8202 4.54588 12.7315C4.57423 12.656 4.58812 12.536 4.72441 12.5633C4.74438 12.5674 4.7655 12.5656 4.78633 12.5665C4.78691 12.5613 4.78749 12.556 4.78807 12.5508C4.75827 12.545 4.72239 12.5482 4.69953 12.5325ZM5.68855 12.3466C5.6628 12.2501 5.67872 12.1772 5.79648 12.1539C5.91425 12.1307 5.95332 12.1545 6.01206 12.2696C6.04562 12.3352 6.07601 12.3832 6.06009 12.4689C6.05083 12.5177 6.1304 12.6095 6.19088 12.64C6.31936 12.7051 6.31299 12.8024 6.30257 12.9213C6.18104 12.9309 6.0653 12.9474 5.95013 12.9451C5.91078 12.9442 5.84973 12.9035 5.83757 12.8681C5.78057 12.6967 5.73514 12.5212 5.68855 12.3466ZM3.04642 11.5028C2.89451 11.4836 2.74346 11.4578 2.59184 11.4366C2.57506 11.4342 2.55104 11.4383 2.53947 11.4491C2.45034 11.5313 2.36209 11.4892 2.26487 11.4627C2.17314 11.4377 2.0736 11.4377 1.97753 11.4357C1.90635 11.4342 1.83517 11.4485 1.7637 11.4531C1.66445 11.4598 1.64535 11.3939 1.64188 11.314C1.63754 11.2186 1.70409 11.2221 1.76428 11.2309C1.89362 11.2494 2.02151 11.2814 2.15144 11.2951C2.26139 11.3067 2.37337 11.3009 2.48449 11.3009C2.51429 11.3009 2.55017 11.2823 2.57245 11.2939C2.64364 11.3302 2.70729 11.3003 2.77732 11.2948C2.95904 11.28 3.14249 11.2898 3.32507 11.2898C3.32652 11.4302 3.20036 11.5223 3.04642 11.5028ZM1.72897 13.2734C1.81376 13.2444 1.90172 13.2252 1.98824 13.2005C2.02354 13.1903 2.06058 13.1813 2.09241 13.1636C2.17198 13.1188 2.24779 13.0602 2.34241 13.1488C2.37337 13.0976 2.38466 13.0587 2.41012 13.043C2.44051 13.0241 2.50937 13.0087 2.51661 13.0201C2.57795 13.1183 2.6228 13.0433 2.67981 13.0174C2.7371 12.9913 2.80278 12.9846 2.86876 12.9683C2.90666 13.4501 2.5059 13.0944 2.30914 13.4169C2.24837 13.5163 2.15375 13.4774 2.06723 13.4358C2.03974 13.4228 2.00386 13.4277 1.97203 13.4233C1.8887 13.4117 1.80102 13.4114 1.72348 13.3832C1.66503 13.3617 1.64766 13.3013 1.72897 13.2734ZM3.43474 14.2622C3.2565 14.2837 3.11124 14.4496 2.911 14.3766C2.84995 14.3545 2.77356 14.379 2.70874 14.3633C2.6445 14.3479 2.58634 14.3081 2.52529 14.2799C2.50532 14.2706 2.48246 14.254 2.46365 14.2572C2.36064 14.2758 2.2585 14.2993 2.15636 14.3217C2.1416 14.3249 2.128 14.3339 2.11353 14.3357C2.0273 14.3464 1.75704 14.0681 1.78713 13.9887C1.80739 13.9353 1.85745 13.8827 1.9078 13.8542C1.95323 13.8287 2.02267 13.8188 2.07244 13.833C2.22291 13.876 2.39739 13.8417 2.52384 13.9681C2.5331 13.9774 2.55885 13.9713 2.57679 13.9702C2.72784 13.9603 2.73565 13.9684 2.72726 14.1221C2.81551 14.1456 2.89364 14.1666 2.97148 14.1872C2.96974 14.1979 2.96801 14.209 2.96656 14.2197C3.06581 14.1913 3.13497 13.9789 3.25852 14.173C3.30077 14.1462 3.32913 14.1178 3.3624 14.1099C3.40118 14.1006 3.44458 14.1093 3.48567 14.1105C3.46889 14.1637 3.45731 14.2595 3.43474 14.2622ZM3.59331 12.932C3.57132 12.9768 3.53168 13.0291 3.48769 13.043C3.40696 13.0686 3.31813 13.0689 3.23277 13.0799C3.22727 13.0878 3.22206 13.0956 3.21657 13.1037C3.16303 13.0683 3.08809 13.0445 3.06118 12.9948C3.02269 12.923 3.09069 12.819 3.19168 12.8097C3.3025 12.7998 3.41767 12.8228 3.52878 12.844C3.55685 12.8492 3.60141 12.9157 3.59331 12.932ZM3.99465 10.938C3.88527 10.9112 3.7704 10.8485 3.67375 10.8694C3.56814 10.8924 3.4822 10.8787 3.39192 10.8465C3.35488 10.8334 3.30308 10.7985 3.2999 10.7689C3.29614 10.7355 3.33144 10.6852 3.36385 10.6625C3.50534 10.5626 3.64945 10.5129 3.82393 10.6085C3.88006 10.6393 3.97989 10.6131 4.0505 10.587C4.14135 10.5536 4.19257 10.5701 4.29327 10.7119C4.38528 10.6474 4.38528 10.6474 4.55716 10.7395C4.60404 10.6224 4.76984 10.5701 4.88038 10.6378C4.88616 10.6413 4.89195 10.6527 4.89542 10.6515C5.08669 10.6009 5.23426 10.7625 5.41482 10.7497C5.43218 10.9758 5.32223 11.1053 5.10405 11.1042C4.91915 11.1033 4.73454 11.083 4.54993 11.0734C4.52996 11.0722 4.50971 11.0876 4.48887 11.0905C4.442 11.0972 4.39483 11.1024 4.34767 11.105C4.29819 11.108 4.24726 11.1004 4.19923 11.1094C4.10518 11.1277 4.04529 11.0798 3.99465 10.938ZM4.9886 14.8107C4.92002 14.8186 4.81932 14.8005 4.78865 14.8392C4.65149 15.0118 4.48338 14.9539 4.31815 14.9275C4.27996 14.9214 4.23887 14.8967 4.21109 14.8688C4.18186 14.8392 4.16682 14.7953 4.1457 14.7575C4.17666 14.7413 4.2082 14.7259 4.23887 14.709C4.27157 14.691 4.31092 14.6785 4.33465 14.6524C4.49727 14.4711 4.81035 14.4344 5.00162 14.5919C5.0482 14.6303 5.06007 14.7154 5.07656 14.7817C5.07945 14.7936 5.02679 14.8197 4.99988 14.8392C4.99612 14.8293 4.99236 14.82 4.9886 14.8107ZM5.16453 15.3651C5.11331 15.3253 5.06788 15.2776 5.021 15.232C5.04473 15.2114 5.06817 15.1905 5.07656 15.1832C5.17899 15.1913 5.23802 15.2215 5.23224 15.3064C5.23079 15.3288 5.17002 15.3694 5.16453 15.3651ZM6.5086 15.3875C6.48342 15.3813 6.45883 15.37 6.43336 15.368C6.24702 15.3532 6.06009 15.3427 5.87403 15.3259C5.70592 15.3105 5.55082 15.2599 5.41337 15.1544C5.28143 15.0533 5.26117 14.8249 5.46864 14.7799C5.56355 14.7593 5.65441 14.7203 5.74208 14.6913C5.6874 14.6666 5.61766 14.6463 5.5621 14.6062C5.52999 14.5829 5.4996 14.5225 5.50742 14.4882C5.51436 14.4586 5.57455 14.4353 5.61535 14.4214C5.70852 14.3894 5.80401 14.365 5.92467 14.3301C5.84944 14.2639 5.79128 14.229 5.75742 14.1776C5.72762 14.1326 5.7253 14.0695 5.71055 14.0143C5.7198 14.0024 5.72878 13.9905 5.73803 13.9789C5.63676 13.9629 5.53577 13.9455 5.4345 13.9318C5.28924 13.9123 5.15295 13.9016 5.0048 13.9681C4.90381 14.0134 4.76434 13.9864 4.64455 13.9713C4.51029 13.9545 4.37747 13.9196 4.24726 13.8818C4.20906 13.8708 4.15901 13.8266 4.15438 13.7923C4.14917 13.7528 4.17724 13.6918 4.2108 13.6671C4.33002 13.5791 4.41798 13.5951 4.5019 13.718C4.60549 13.5512 4.74611 13.6398 4.87372 13.6471C4.90613 13.6488 4.94432 13.6674 4.97008 13.6561C5.14745 13.5762 5.3312 13.5916 5.51639 13.6043C5.57715 13.6084 5.7117 13.5361 5.77478 13.5335C5.97097 13.5247 5.96692 13.5291 6.00193 13.7223C6.02334 13.8391 6.06298 13.9524 6.09684 14.0666C6.19811 14.4086 6.3697 14.7128 6.59656 14.9859C6.69465 15.1042 6.80114 15.2154 6.89981 15.3334C6.92151 15.3593 6.92614 15.3994 6.93887 15.4331C6.82052 15.4703 6.93511 15.4891 6.5086 15.3875ZM7.04159 14.999C6.99559 14.9926 6.94148 14.9993 6.90531 14.9769C6.83846 14.9359 6.77481 14.8842 6.72272 14.8255C6.41976 14.4847 6.16513 14.1169 6.08237 13.6537C6.06009 13.5294 6.08758 13.4873 6.21171 13.471C6.27016 13.4634 6.32717 13.4457 6.41513 13.4257C6.44175 13.4544 6.49066 13.4855 6.50744 13.5291C6.57978 13.715 6.63649 13.9074 6.71144 14.0922C6.76468 14.2232 6.8402 14.345 6.90097 14.4731C6.94061 14.5571 6.97244 14.6451 7.00514 14.7323C7.02076 14.7741 7.03523 14.8174 7.04102 14.8613C7.0468 14.9063 7.04188 14.9531 7.04159 14.999Z" fill="#31FA45"/>
<path d="M17.948 8.17654C17.7449 8.14865 17.5438 8.10594 17.3415 8.07165C17.31 8.06642 17.275 8.07136 17.2432 8.07863C17.0999 8.11175 16.8285 8.01006 16.7582 7.89413C16.7544 7.88803 16.7541 7.87989 16.7521 7.87263C16.7157 7.74072 16.8091 7.62363 16.9469 7.6245C16.9744 7.62479 17.0056 7.61752 17.0288 7.603C17.0612 7.58295 17.0924 7.56029 17.1271 7.53472C16.9061 7.4031 16.6749 7.29472 16.4338 7.20959C16.4555 7.24707 16.4859 7.27613 16.5224 7.29734C16.5157 7.30344 16.5085 7.30983 16.5001 7.31651C16.356 7.42838 16.2177 7.54547 16.0287 7.57307C16.0154 7.5751 15.9972 7.58585 15.9928 7.59689C15.9266 7.7628 15.7643 7.81655 15.6358 7.91069C15.5686 7.95979 15.4613 7.98623 15.4954 8.10942C15.4549 8.12046 15.4121 8.14603 15.3739 8.14051C15.1905 8.11407 15.005 8.07979 14.8369 8.1841C14.7535 8.23581 14.6638 8.29044 14.6372 8.40491C14.6126 8.51067 14.5131 8.54699 14.3881 8.49847C14.3111 8.46854 14.255 8.47261 14.1676 8.50021C14.0122 8.54902 13.9031 8.6452 13.7761 8.72858C13.7098 8.77217 13.6025 8.76229 13.5142 8.75851C13.4537 8.7559 13.4523 8.67106 13.4882 8.60161C13.599 8.38806 13.7946 8.26748 13.9792 8.1347C14.1051 8.04463 14.2451 8.00279 14.402 7.99291C14.4627 7.98914 14.5284 7.92725 14.5756 7.87611C14.6722 7.77152 14.6812 7.76599 14.7868 7.87059C14.8429 7.76367 14.9957 7.75437 15.0183 7.60416C15.0232 7.57045 15.1152 7.5292 15.1676 7.52833C15.2509 7.52716 15.334 7.56668 15.4182 7.57075C15.5038 7.57481 15.5909 7.5568 15.6395 7.55215C15.7075 7.50566 15.7489 7.47864 15.7891 7.44959C15.8215 7.42605 15.849 7.39496 15.8838 7.37666C16.0082 7.31099 16.1471 7.27526 16.246 7.16049C16.2469 7.15962 16.2481 7.15904 16.2492 7.15817C16.3033 7.18867 16.3563 7.20088 16.4063 7.19942C16.2174 7.13405 16.0224 7.0832 15.8215 7.04659C15.8039 7.05473 15.786 7.06374 15.7683 7.0742C15.7692 7.06199 15.7695 7.04979 15.7692 7.0373C15.6896 7.02393 15.6094 7.01231 15.5281 7.0033C15.3406 6.98267 15.1546 6.97192 14.9749 6.97192C14.3325 6.97192 13.7318 7.10703 13.1893 7.37317C12.7824 7.57278 12.3984 7.85113 12.0425 8.20327C12.0683 8.21402 12.0908 8.22303 12.1071 8.22913C12.1661 8.2515 12.2506 8.28172 12.3328 8.30554C12.259 8.36162 12.1834 8.41624 12.1073 8.47029C12.0521 8.47145 11.9974 8.46912 11.9447 8.4575C11.9002 8.44791 11.866 8.43339 11.8362 8.41973C11.7937 8.4668 11.7511 8.51474 11.7095 8.56413C11.4247 8.90088 11.1823 9.25709 10.9817 9.63016C11.0743 9.70744 11.0309 9.7981 11.0147 9.95645C11.0017 10.0857 11.0376 10.238 11.1282 10.3298C11.1154 10.3423 11.103 10.3551 11.0911 10.3682C11.028 10.4388 10.976 10.5155 10.9224 10.5744C10.897 10.6012 10.8677 10.6218 10.8319 10.641C10.796 10.6604 10.7529 10.679 10.7097 10.7064C10.7083 10.7072 10.7068 10.7084 10.7054 10.7093C10.6643 10.6968 10.6241 10.6825 10.5853 10.6634C10.5743 10.6581 10.5639 10.652 10.5535 10.6462C10.4618 10.9382 10.392 11.2386 10.3457 11.5469C10.2115 12.4435 10.2161 13.2981 10.3588 14.0898C10.359 14.0904 10.359 14.0907 10.359 14.0913C10.4085 14.2394 10.469 14.3772 10.5078 14.5155C10.5422 14.6381 10.5619 14.6645 10.5928 14.7374C10.6828 14.944 10.671 15.2081 10.8052 15.4658C10.8052 15.4682 10.8052 15.4702 10.8049 15.4725L10.789 15.5141C10.9754 15.9441 11.2095 16.3572 11.4904 16.7504C11.6458 16.9677 11.8125 17.1673 11.9902 17.3503C12.0156 17.3178 12.0474 17.2882 12.0862 17.2623C12.3626 17.0764 12.6065 16.8439 12.9199 16.7108C13.2055 16.5894 13.3878 16.3447 13.5486 16.0949C13.6537 15.9319 13.726 15.7474 13.7914 15.5588C13.8611 15.3578 13.9005 15.1619 13.8959 14.9519C13.8944 14.8888 13.9184 14.8258 13.9277 14.7621C13.9349 14.7116 13.952 14.6564 13.9387 14.6108C13.9092 14.5096 13.961 14.4623 14.0359 14.4213C14.0921 14.3908 14.1615 14.3722 14.2014 14.3272C14.4705 14.0247 14.8386 13.8542 15.1462 13.6037C15.2145 13.5479 15.2787 13.4834 15.3311 13.4128C15.426 13.2847 15.5122 13.1499 15.599 13.0159C15.7 12.8599 15.7984 12.7018 15.8971 12.5441C15.983 12.4066 16.0661 12.2672 16.1552 12.1321C16.1731 12.1051 16.2113 12.0777 16.2417 12.0754C16.3493 12.0676 16.4605 12.0554 16.5658 12.0734C16.7411 12.103 16.9191 12.1309 17.0632 12.2585C17.1315 12.3189 17.1688 12.3622 17.0719 12.4284C17.1723 12.463 17.2681 12.4941 17.3606 12.5281H18.0542C18.0215 12.4912 18.0019 12.4473 18.0019 12.3927C18.0019 12.3166 18.0279 12.2651 18.1078 12.3009C18.2643 12.3706 18.3775 12.2201 18.5262 12.25C18.446 12.1515 18.3381 12.0763 18.321 11.9839C18.2993 11.8659 18.2183 11.8633 18.1526 11.8389C18.0754 11.8101 17.9874 11.8072 17.9035 11.8C17.639 11.7773 17.3742 11.7625 17.1158 11.6919C16.946 11.6454 16.7727 11.6126 16.6011 11.5736C16.5846 11.4458 16.5941 11.4165 16.6789 11.3293C16.6945 11.3133 16.7154 11.2988 16.7232 11.2796C16.7938 11.105 16.8575 10.9289 17.0198 10.8095C17.0698 10.7726 17.0834 10.6846 17.1743 10.711C17.2417 10.7305 17.31 10.7467 17.3766 10.7682C17.4593 10.795 17.54 10.8467 17.6234 10.8505C17.8627 10.8618 18.1029 10.8545 18.3135 10.8545C18.2961 10.8115 18.2577 10.7575 18.2551 10.7017C18.2504 10.6006 18.2137 10.5651 18.1118 10.5646C17.9344 10.5637 17.8702 10.5056 17.8149 10.3403C17.7929 10.2749 17.7574 10.2142 17.7281 10.1514C17.7206 10.1622 17.7131 10.1729 17.7056 10.1837C17.6558 10.1988 17.6063 10.2139 17.5565 10.2287C17.545 10.2156 17.5331 10.2025 17.5215 10.1898C17.5768 10.086 17.6324 9.9823 17.6876 9.87858C17.7851 9.69582 17.8957 9.51859 17.9761 9.32886C18.0424 9.17312 18.1703 9.09991 18.2901 9.00286C18.4081 8.90756 18.5097 8.93633 18.6113 8.97787C18.4382 8.72771 18.2585 8.50428 18.0667 8.29915C18.0276 8.25702 17.988 8.21635 17.948 8.17654ZM10.3862 13.3904C10.3724 13.2777 10.3582 13.1874 10.357 13.0851C10.3747 13.0732 10.3929 13.065 10.4129 13.0586C10.4704 13.289 10.5752 13.7103 10.5787 13.9251C10.5179 13.7507 10.4678 13.5267 10.3862 13.3904ZM13.6829 12.0597C13.8447 12.0461 14.0079 12.0144 14.1687 12.0234C14.3383 12.033 14.3849 12.1608 14.2914 12.3058C14.2668 12.3439 14.2414 12.3814 14.213 12.4165C14.1754 12.463 14.1395 12.4688 14.0776 12.4389C13.9749 12.3895 13.8606 12.3642 13.7758 12.3369C13.7376 12.3994 13.7223 12.4566 13.687 12.4752C13.6001 12.5205 13.5038 12.5726 13.3985 12.4735C13.4639 12.3921 13.5255 12.3157 13.5868 12.2393C13.5796 12.2314 13.5727 12.2233 13.5654 12.2155C13.6048 12.2094 13.6441 12.2033 13.6907 12.1957C13.6881 12.1521 13.6858 12.1123 13.6829 12.0597ZM13.9702 12.6513C13.9534 12.6992 13.9506 12.7661 13.917 12.7916C13.8221 12.864 13.7211 12.9424 13.61 12.9767C13.3785 13.0485 13.1392 13.0947 12.9025 13.1487C12.8562 13.1592 12.8073 13.158 12.7616 13.1621C12.6979 12.8547 12.7442 12.7608 13.002 12.6315C13.1085 12.5781 13.2029 12.5996 13.3044 12.6426C13.3559 12.6644 13.4176 12.6766 13.4731 12.6725C13.5949 12.6638 13.7196 12.6803 13.838 12.6228C13.8698 12.6074 13.9254 12.6405 13.9702 12.6513ZM13.5165 11.2944C13.5394 11.4475 13.6305 11.5934 13.529 11.7616C13.4647 11.8683 13.3687 11.8197 13.296 11.8624C13.272 11.8764 13.2382 11.8732 13.2005 11.8793C13.2188 11.9668 13.2639 12.0571 13.2457 12.1318C13.2286 12.2024 13.145 12.257 13.0909 12.3186C13.081 12.316 13.0712 12.3137 13.0614 12.3111C13.0663 12.3439 13.0712 12.377 13.079 12.4287C12.9283 12.4462 12.9031 12.6745 12.6997 12.6417C12.68 12.4741 12.6447 12.3145 12.8033 12.1777C12.9398 12.0594 13.0463 11.9156 13.0871 11.7268C13.1045 11.6472 13.1748 11.5795 13.2193 11.5054C13.2581 11.4409 13.2928 11.374 13.3322 11.3101C13.3501 11.2811 13.3788 11.2322 13.3959 11.2349C13.4401 11.2415 13.5125 11.2674 13.5165 11.2944ZM13.3626 11.0216C13.2382 11.211 13.0469 11.3214 12.8707 11.4478C12.8278 11.4786 12.73 11.4873 12.6947 11.4592C12.6537 11.4266 12.6334 11.34 12.6392 11.2805C12.6655 11.0152 12.7986 10.7863 12.9109 10.5518C12.9656 10.4376 13.0724 10.4181 13.1751 10.4858C13.1878 10.4943 13.2075 10.4916 13.224 10.494C13.2726 10.5006 13.3608 10.5015 13.3629 10.5149C13.3721 10.5803 13.3588 10.6488 13.3519 10.7162C13.351 10.7249 13.3409 10.7328 13.3354 10.7406C13.4667 10.8621 13.463 10.8688 13.3626 11.0216ZM12.6447 7.81655C12.792 7.72851 12.9416 7.64396 13.0909 7.55883C13.1366 7.64977 13.2234 7.71834 13.3519 7.72503C13.3458 7.78081 13.3015 7.80696 13.2347 7.8119C13.2046 7.81394 13.1739 7.80958 13.1444 7.81335C13.0729 7.82236 12.9986 7.79272 12.9537 7.90197C12.9213 7.981 12.7167 8.01296 12.6076 7.98129C12.6256 7.92899 12.6383 7.87292 12.6447 7.81655ZM13.1997 9.12896C13.1305 9.23617 13.07 9.33031 13.0096 9.42416C12.9364 9.47704 12.8631 9.53021 12.7902 9.58309C12.7775 9.57583 12.7645 9.56856 12.7517 9.5613C12.774 9.49622 12.7798 9.41573 12.8223 9.36895C12.9161 9.26552 13.0287 9.17952 13.1323 9.0848C13.1464 9.07172 13.1485 9.04644 13.1609 9.03076C13.1858 8.99996 13.2138 8.97206 13.2454 8.93778C13.3172 9.0694 13.3067 9.09409 13.1997 9.12896ZM12.5645 10.3745C12.5689 10.2763 12.5865 10.1746 12.6204 10.0825C12.7095 9.83964 12.8316 9.61418 13.0104 9.42358C13.2251 9.21642 13.1571 9.27395 13.281 9.23182C13.2879 9.26872 13.3024 9.3062 13.2992 9.34222C13.2957 9.38087 13.2758 9.41806 13.27 9.43607C13.3177 9.43375 13.386 9.40905 13.4233 9.43317C13.4939 9.47849 13.4766 9.60924 13.4034 9.70686C13.4531 9.77398 13.4381 9.87073 13.3678 9.93814C13.338 9.9669 13.2998 9.99102 13.2801 10.0256C13.2182 10.136 13.1554 10.2371 13.0096 10.2479C12.9864 10.2496 12.963 10.3002 12.9465 10.3318C12.9074 10.4068 12.8756 10.4858 12.8348 10.5596C12.8041 10.6151 12.7671 10.6677 12.7274 10.7174C12.7037 10.7473 12.6699 10.7691 12.6247 10.8083C12.6079 10.7572 12.5923 10.7276 12.5888 10.6968C12.5778 10.5898 12.5599 10.4815 12.5645 10.3745ZM12.1091 13.8088L12.1334 12.7164L12.1455 12.1704C12.1513 12.0005 12.1658 11.8296 12.182 11.6495C12.1834 11.6323 12.1849 11.6143 12.1866 11.5972C12.2014 11.7456 12.2161 11.8648 12.2127 11.9822C12.2112 12.1393 12.1982 12.3151 12.1994 12.513C12.2011 12.721 12.2231 12.891 12.2295 13.0441C12.2364 13.1833 12.2286 13.3655 12.2266 13.5366C12.2228 13.7179 12.2176 13.9001 12.2118 14.0822C12.1722 14.0811 12.1834 14.2604 12.1447 14.2853C12.1447 14.2816 12.0188 14.3525 12.0188 14.3487L12.1091 13.8088ZM12.1279 14.4518C12.0582 14.6622 11.9757 14.89 11.9705 15.0925C11.9713 15.064 11.9517 15.0347 11.9517 15.0007C11.9517 14.8815 11.9444 15.1826 11.9592 14.4457C12.0171 14.4597 12.0744 14.4611 12.1279 14.4518ZM11.6264 9.82105C11.8047 9.78299 11.9577 9.64904 12.0492 9.48198C12.0587 9.50522 12.0683 9.52818 12.077 9.55084C12.0472 9.65515 12.0272 9.75103 11.9922 9.8411C11.954 9.93959 11.719 10.0137 11.6447 9.94134C11.6195 9.91693 11.6096 9.87219 11.6056 9.82599C11.6128 9.82454 11.6195 9.8225 11.6264 9.82105ZM10.767 12.5696C10.745 12.3227 10.7242 12.076 10.7068 11.8279C10.7034 11.7788 10.699 11.7302 10.6953 11.6814C10.7095 11.6823 10.7239 11.6832 10.7401 11.6817C10.7607 11.68 10.7795 11.6748 10.7974 11.6678C10.8316 11.8616 10.8677 12.0516 10.9033 12.2405C10.9033 12.3302 10.9007 12.4186 10.8975 12.5168C10.8903 12.7803 10.888 13.0473 10.8978 13.314C10.9056 13.5549 10.943 14.0358 10.9409 14.267C10.8912 13.9233 10.8946 13.9936 10.767 12.5696ZM11.2199 13.6903C11.2141 13.6371 11.2086 13.5845 11.204 13.5325C11.1982 13.4622 11.1936 13.3829 11.1846 13.3079C11.1759 13.2327 11.1658 13.1577 11.1551 13.0839C11.1363 12.9532 11.1163 12.8227 11.1038 12.6937C11.1038 12.6905 11.1041 12.6867 11.1044 12.6835C11.1464 12.6742 11.1883 12.674 11.2303 12.678C11.2378 12.7268 11.2439 12.7739 11.2436 12.8201L11.2372 13.0299L11.2309 13.2434C11.23 13.3158 11.232 13.3867 11.2323 13.4564C11.2323 13.5261 11.2315 13.5947 11.2239 13.6609C11.2228 13.6708 11.221 13.6804 11.2199 13.6903ZM11.2795 14.8336C11.2731 14.9562 11.278 14.9086 11.2676 14.9893C11.2589 14.901 11.2462 14.8141 11.2312 14.7281C11.2757 14.5587 11.3 14.4768 11.3177 14.3588C11.3142 14.5099 11.2896 14.668 11.2795 14.8336ZM11.2668 10.7052C11.2824 10.6907 11.2977 10.6764 11.3133 10.6619C11.3099 10.6732 11.3064 10.6843 11.3026 10.6956C11.2908 10.6994 11.2786 10.702 11.2668 10.7052ZM11.3423 10.5015C11.2604 10.5785 11.1765 10.6541 11.0917 10.729C11.0868 10.7334 11.0821 10.7377 11.0772 10.7421C11.063 10.7435 11.0486 10.7444 11.0344 10.7453C11.0471 10.7281 11.0599 10.7107 11.0729 10.6939C11.147 10.5971 11.2262 10.5038 11.3073 10.4114C11.3177 10.412 11.3278 10.4129 11.3385 10.4123C11.3431 10.4422 11.3434 10.4719 11.3423 10.5015ZM11.5434 15.6384C11.5037 15.6373 11.4734 15.6457 11.4349 15.6561C11.4349 15.6544 11.4349 15.653 11.4346 15.6512C11.4519 14.6973 11.4415 14.8008 11.4823 14.5657C11.5422 14.7941 11.4991 14.7624 11.5084 14.9612C11.5208 15.2023 11.5686 14.9888 11.5434 15.6384ZM11.4603 13.9893L11.493 13.9849C11.4818 13.8228 11.4609 13.6607 11.4609 13.4985C11.4603 13.2007 11.4722 12.9026 11.4783 12.6048C11.4794 12.5481 11.4875 12.4903 11.4783 12.4351C11.4352 12.1736 11.471 11.9197 11.5182 11.6617C11.5492 11.4926 11.5364 11.3153 11.5414 11.1416C11.5434 11.0658 11.5324 10.9885 11.5419 10.9138C11.5688 10.6991 11.5998 10.485 11.6371 10.272C11.6464 10.2197 11.6826 10.1479 11.7514 10.1819C11.8006 10.2063 11.844 10.2659 11.8643 10.3193C11.8903 10.3882 11.9033 10.4678 11.8984 10.5413C11.8929 10.6238 11.8675 10.7066 11.8391 10.7851C11.8212 10.8351 11.7841 10.8749 11.8374 10.9257C11.8501 10.9376 11.8495 10.9687 11.8478 10.9902C11.8374 11.1088 11.8223 11.227 11.8131 11.3456C11.7922 11.6076 11.7679 11.8697 11.7566 12.1324C11.7468 12.3587 11.7604 12.5862 11.7491 12.8123C11.7419 12.9567 11.704 13.0993 11.6875 13.2437C11.6794 13.3143 11.6889 13.387 11.6904 13.4587C11.6947 13.6885 11.7318 13.9198 11.6392 14.1438C11.6218 14.1857 11.6403 14.2415 11.6348 14.29C11.6319 14.3158 11.6125 14.3397 11.6007 14.3647C11.5014 14.3106 11.533 14.4082 11.4603 13.9893ZM11.7665 16.0876C11.7127 16.0885 11.6585 16.0847 11.605 16.0774C11.6088 16.0496 11.6125 16.022 11.6175 15.9949C11.695 15.5344 11.9239 15.449 12.3414 15.105C12.3203 15.143 12.3029 15.1817 12.2865 15.218C12.259 15.2822 12.2306 15.3365 12.1959 15.3976C12.1626 15.4571 12.1282 15.5161 12.0932 15.5748C12.0226 15.6922 11.9491 15.8078 11.8741 15.9232L11.7665 16.0876ZM13.6745 15.2598C13.5845 15.4836 13.5096 15.7134 13.4222 15.9383C13.3409 16.148 13.1927 16.3073 13.0139 16.4374C12.8145 16.5827 12.6169 16.7309 12.4083 16.8613C12.3061 16.9253 12.1826 16.9569 12.0657 16.9933C11.9997 17.0136 11.9589 16.9848 11.9673 16.9038C11.9887 16.6905 12.0145 16.4772 12.0231 16.2631C12.0408 15.8229 12.3096 15.5539 12.6383 15.3217C12.6626 15.3046 12.6837 15.2825 12.7075 15.2645C12.8328 15.1706 12.9557 15.0736 13.0845 14.985C13.2422 14.8766 13.4042 14.7743 13.566 14.6715C13.6207 14.6366 13.6794 14.6084 13.7567 14.566C13.7801 14.829 13.7602 15.0469 13.6745 15.2598ZM13.9453 13.4538C13.8548 13.6676 13.7466 13.887 13.7665 14.1351C13.779 14.2882 13.7321 14.3963 13.5753 14.4643C13.3976 14.5413 13.2353 14.654 13.0631 14.7453C12.9575 14.8011 12.8481 14.8507 12.7364 14.8926C12.6794 14.9138 12.6137 14.9118 12.5738 14.9173C12.5738 14.6308 12.5833 14.367 12.5709 14.104C12.5599 13.8643 12.5741 13.6316 12.6658 13.409C12.6803 13.3739 12.7156 13.3309 12.7486 13.3233C12.9126 13.2856 13.0799 13.262 13.2442 13.2254C13.3229 13.208 13.4008 13.1789 13.4737 13.1446C13.8125 12.9848 14.1164 12.7873 14.27 12.4186C14.3131 12.3151 14.3852 12.2239 14.4454 12.1283C14.4919 12.0542 14.5579 12.0554 14.6216 12.0972C14.6832 12.1379 14.7553 12.1812 14.7104 12.2774C14.693 12.3148 14.6774 12.3543 14.6537 12.3881C14.5371 12.5545 14.4141 12.7167 14.3007 12.8852C14.1757 13.0706 14.0316 13.2504 13.9453 13.4538ZM13.9885 13.8109C14.0429 13.663 14.0738 13.518 14.145 13.3971C14.364 13.0246 14.5987 12.6615 14.827 12.2948C14.882 12.2067 14.9448 12.1492 15.0585 12.2067C15.0857 12.2204 15.1297 12.1966 15.1647 12.2004C15.2252 12.207 15.294 12.2079 15.3401 12.2396C15.3612 12.2541 15.3464 12.3398 15.3296 12.3869C15.2909 12.4956 15.2579 12.6126 15.1919 12.7042C15.0617 12.8852 14.9161 13.0563 14.7668 13.2219C14.6294 13.3745 14.4757 13.5122 14.3334 13.6607C14.2179 13.7812 14.154 13.817 13.9885 13.8109ZM15.8476 12.4154C15.7049 12.6556 15.5669 12.8997 15.4086 13.1292C15.2113 13.4157 14.9867 13.6787 14.674 13.8513C14.5663 13.9105 14.4723 13.9948 14.3675 14.0602C14.2917 14.1078 14.2101 14.1473 14.1274 14.1819C14.1042 14.1915 14.0683 14.1706 14.0382 14.1636C14.0463 14.1363 14.0466 14.1017 14.064 14.0831C14.1204 14.0224 14.1797 13.9634 14.2443 13.9117C14.5293 13.6824 14.7634 13.4073 14.9726 13.1092C15.1219 12.8965 15.2692 12.6821 15.415 12.4668C15.4509 12.4139 15.481 12.3564 15.5079 12.2983C15.5837 12.1335 15.6448 12.1033 15.8227 12.1513C15.8551 12.16 15.8864 12.173 15.9454 12.1937C15.9101 12.2753 15.8864 12.35 15.8476 12.4154ZM16.8884 10.8502C16.7333 11.0556 16.5745 11.2578 16.4162 11.4606C16.4095 11.4693 16.4014 11.4836 16.3936 11.4839C16.2272 11.4923 16.0663 11.5812 15.8939 11.5167C15.8563 11.5027 15.8062 11.5004 15.7683 11.5126C15.6682 11.5455 15.5747 11.5609 15.4746 11.5074C15.4309 11.4842 15.3733 11.4847 15.3212 11.4807C15.2101 11.4719 15.0953 11.4868 15.0047 11.3938C14.9853 11.3737 14.9407 11.3775 14.9078 11.3711C14.7683 11.3438 14.6233 11.3325 14.4914 11.2843C14.4112 11.2552 14.3481 11.1727 14.2853 11.1067C14.2732 11.0939 14.2882 11.0353 14.3082 11.017C14.3311 10.9963 14.384 10.9792 14.4054 10.992C14.5021 11.0492 14.597 11.0507 14.698 11.0129C14.7142 11.0068 14.7399 11.0053 14.7527 11.014C14.8753 11.098 15.0151 11.06 15.1468 11.0658C15.2145 11.0687 15.2839 11.0286 15.3522 11.0071C15.3658 11.0027 15.3785 10.9873 15.391 10.9882C15.6181 11.0062 15.8123 10.8967 16.0183 10.8304C16.0918 10.8066 16.1783 10.7894 16.2515 10.8051C16.4411 10.8455 16.6167 10.7906 16.7967 10.7557C16.8253 10.7502 16.8554 10.7514 16.8994 10.7485C16.8962 10.7886 16.9046 10.8287 16.8884 10.8502ZM17.4055 10.177C17.3297 10.3039 17.1922 10.279 17.08 10.29C16.9275 10.3048 16.7715 10.2848 16.617 10.2822C16.529 10.2807 16.4387 10.263 16.3731 10.3568C16.3543 10.3838 16.29 10.3856 16.246 10.3867C16.084 10.392 15.9217 10.3984 15.7599 10.3917C15.6719 10.3882 15.5854 10.3559 15.4972 10.3417C15.1983 10.2935 14.8988 10.2473 14.5866 10.1985C14.5782 10.0982 14.6219 9.99945 14.724 9.93233C14.8395 9.85621 14.9619 9.86202 15.077 9.93262C15.1497 9.97707 15.2101 10.032 15.2935 9.94511C15.31 9.92797 15.3869 9.9425 15.4133 9.9672C15.4844 10.0334 15.5455 10.0192 15.6155 9.97272C15.6393 9.95703 15.6696 9.9454 15.698 9.94366C15.7816 9.93843 15.8652 9.94017 15.9492 9.93727C16.2391 9.92768 16.5287 9.91315 16.8187 9.90909C16.9269 9.90763 17.0354 9.93117 17.1439 9.94192C17.1807 9.94569 17.2252 9.95964 17.2533 9.94453C17.3496 9.89281 17.4174 9.94075 17.4975 9.99741C17.4634 10.0639 17.4379 10.1226 17.4055 10.177ZM17.9579 9.21206C17.8745 9.35239 17.8011 9.50115 17.7009 9.62842C17.5892 9.76991 17.5317 9.78647 17.4162 9.66328C17.321 9.56159 17.2186 9.60488 17.1248 9.56885C17.0664 9.54648 17.012 9.51452 16.9553 9.4875C16.9425 9.4814 16.9289 9.47733 16.915 9.47471C16.81 9.45467 16.6916 9.45961 16.6017 9.41108C16.2831 9.23937 15.9593 9.3951 15.6395 9.37418C15.5846 9.3707 15.5192 9.38174 15.4775 9.3553C15.4008 9.30678 15.3302 9.33351 15.2544 9.33641C14.9315 9.34833 14.9763 9.29806 14.5293 9.39568C14.5119 9.39946 14.5035 9.4352 14.4864 9.45118C14.4694 9.46687 14.4468 9.4843 14.426 9.48546C14.4101 9.48634 14.3814 9.466 14.3782 9.4506C14.3554 9.34687 14.5134 9.33176 14.5782 9.22775C14.7208 8.99879 14.9335 9.07899 15.1306 9.08276C15.1986 9.08393 15.2666 9.08044 15.3343 9.08364C15.3904 9.08625 15.4593 9.07666 15.4995 9.10514C15.6436 9.20799 15.8152 9.14756 15.9668 9.19782C15.9966 9.2077 16.0415 9.18823 16.0736 9.17109C16.2677 9.06766 16.4581 9.09003 16.6474 9.18242C16.6977 9.20712 16.7394 9.22978 16.8031 9.19608C16.843 9.17487 16.9078 9.20073 16.9654 9.20596C16.9139 9.10194 16.9573 9.00838 17.0843 9.00519C17.1702 9.00315 17.2669 9.02582 17.3418 9.06795C17.4686 9.13913 17.5869 9.14 17.7235 9.10688C17.7993 9.08857 17.8873 9.12024 17.977 9.13012C17.9683 9.17051 17.9686 9.19462 17.9579 9.21206Z" fill="#31FA45"/>
<path d="M10.6084 15.0503C10.6174 15.0762 10.6263 15.1021 10.6356 15.1276C10.6431 15.1 10.6489 15.071 10.6483 15.0393C10.6342 15.0434 10.6211 15.0469 10.6084 15.0503Z" fill="#31FA45"/>
<path d="M48.0184 13.1636C47.4403 12.7772 46.804 12.5038 46.1532 12.2757C45.4321 12.0229 44.6943 11.8195 43.9654 11.5888C43.233 11.357 42.4981 11.1327 41.7738 10.8776C41.2744 10.7015 40.8244 10.4278 40.4876 10.0021C40.1707 9.60148 40.018 9.1491 40.1056 8.63541C40.1913 8.13421 40.4578 7.73703 40.851 7.42817C41.3643 7.02518 41.957 6.82093 42.6016 6.75817C43.4147 6.67885 44.1986 6.78867 44.9394 7.14111C45.8416 7.57025 46.5612 8.22573 47.1732 9.00731C47.5123 9.44052 47.793 9.91092 48.0416 10.4017C48.0563 10.431 48.1029 10.4723 48.1232 10.4664C48.4192 10.3819 48.7132 10.2907 49.0092 10.2006C49.0075 10.1823 49.0077 10.1712 49.0051 10.1611C48.8503 9.53378 48.695 8.90649 48.5401 8.27919C48.3497 7.50895 48.1585 6.7387 47.971 5.96758C47.9501 5.88245 47.9146 5.85223 47.8257 5.85688C47.6674 5.86502 47.508 5.86734 47.35 5.8563C47.2444 5.84875 47.1972 5.88826 47.1587 5.98211C47.043 6.26481 46.9177 6.54345 46.7933 6.83109C46.4426 6.53909 46.0702 6.30317 45.6622 6.12797C44.4498 5.60701 43.1922 5.48934 41.9052 5.7488C40.9572 5.93998 40.0926 6.33193 39.3828 7.00281C38.5231 7.81519 38.1785 8.81874 38.4083 9.9914C38.5906 10.9229 39.1302 11.6176 39.9089 12.1339C40.5599 12.5657 41.2796 12.8452 42.0226 13.0666C43.0334 13.3676 44.049 13.6517 45.058 13.9583C45.6793 14.1471 46.2814 14.3862 46.8274 14.7503C47.8685 15.4447 47.9487 16.8338 47.2878 17.6599C46.5904 18.5312 45.6532 18.9566 44.5571 19.0286C43.4683 19.1001 42.4749 18.7913 41.5724 18.1892C40.4477 17.439 39.6696 16.4015 39.1374 15.1672C39.0689 15.0086 39.0067 14.8471 38.9401 14.6832C38.625 14.7486 38.3171 14.8125 38.0095 14.8761C38.1753 15.778 38.3382 16.6665 38.5023 17.555C38.6432 18.3174 38.787 19.0792 38.9248 19.8422C38.9384 19.9169 38.9661 19.9334 39.0341 19.932C39.204 19.9285 39.3744 19.9259 39.544 19.9346C39.6296 19.9389 39.6592 19.9061 39.6846 19.83C39.8206 19.422 39.9633 19.0161 40.1077 18.5978C40.3264 18.7593 40.533 18.9179 40.7463 19.0673C41.4399 19.554 42.1876 19.9151 43.0293 20.0627C43.8441 20.2054 44.659 20.2086 45.4744 20.0787C46.541 19.9087 47.4854 19.4807 48.2734 18.7271C49.0176 18.0149 49.4947 17.1714 49.5217 16.1168C49.5523 14.8619 49.0674 13.8647 48.0184 13.1636Z" fill="#121212"/>
<path d="M36.4369 19.0761C36.0451 19.0546 35.6978 18.9294 35.4811 18.5816C35.3359 18.3488 35.2001 18.1039 35.1038 17.8479C34.3787 15.9175 33.6639 13.9833 32.9472 12.05C32.1975 10.0281 31.4486 8.00586 30.7018 5.98277C30.6688 5.89328 30.6294 5.85405 30.5264 5.85551C30.0582 5.86219 29.5898 5.86074 29.1213 5.85638C29.0351 5.85551 28.9977 5.88282 28.9679 5.96388C28.6549 6.81054 28.3377 7.65546 28.0206 8.50067C26.9129 11.4532 25.8067 14.4064 24.6941 17.3569C24.5491 17.7413 24.3865 18.1216 24.1996 18.4868C24.0407 18.7974 23.7702 18.9915 23.4137 19.0369C23.2314 19.0598 23.048 19.0732 22.8645 19.0909C22.8645 19.3684 22.8645 19.6458 22.8645 19.9227C24.263 19.9227 25.6507 19.9227 27.0405 19.9227C27.0405 19.6389 27.0405 19.3637 27.0405 19.0746C26.9931 19.0746 26.9526 19.0764 26.912 19.0743C26.6597 19.0607 26.4051 19.0642 26.156 19.0278C25.787 18.9741 25.5778 18.6606 25.6458 18.2928C25.6698 18.1632 25.7037 18.0342 25.7477 17.9101C26.112 16.8853 26.4812 15.8623 26.8446 14.837C26.8759 14.7486 26.9112 14.7144 27.009 14.7144C28.6219 14.7178 30.235 14.7175 31.8479 14.7149C31.9324 14.7149 31.9709 14.737 31.9993 14.8216C32.2203 15.4843 32.4521 16.1436 32.6723 16.8066C32.8352 17.2973 32.9981 17.7889 33.1379 18.2867C33.2484 18.6806 33.0245 18.9863 32.6165 19.0319C32.4481 19.0508 32.2776 19.0476 32.1081 19.0566C31.9967 19.0624 31.8855 19.0717 31.7785 19.0793C31.7785 19.3701 31.7785 19.645 31.7785 19.9254C33.4397 19.9254 35.0925 19.9254 36.7511 19.9254C36.7511 19.6441 36.7511 19.369 36.7511 19.0764C36.6397 19.077 36.5381 19.0816 36.4369 19.0761ZM27.2468 13.725C27.9676 11.7144 28.6855 9.71284 29.4133 7.68277C30.1352 9.70964 30.8479 11.7112 31.5652 13.725C30.1205 13.725 28.6933 13.725 27.2468 13.725Z" fill="#121212"/>
<path d="M16.8413 12.7972C16.8413 13.0793 16.8413 13.3542 16.8413 13.622C17.2068 13.6421 17.5647 13.6604 17.9224 13.6819C18.1808 13.6976 18.4024 13.7946 18.5885 13.9797C18.8327 14.2232 18.9184 14.5329 18.927 14.8583C18.9427 15.4452 18.9432 16.033 18.9285 16.6199C18.9146 17.1752 18.6915 17.6432 18.2508 17.9873C17.3738 18.6715 16.4064 19.0309 15.3555 19.0309C15.0725 19.0309 14.7834 19.0048 14.4886 18.9522C13.1474 18.7122 12.0663 18.0169 11.2729 16.9073C10.1117 15.2828 9.7891 13.4573 10.0808 11.5074C10.2561 10.3353 10.7405 9.29547 11.5047 8.3907C12.4399 7.28371 13.591 6.70319 14.9747 6.70319C15.1645 6.70319 15.3587 6.71423 15.5572 6.73602C16.629 6.85457 17.5268 7.32874 18.2615 8.1141C18.8755 8.77074 19.3073 9.54593 19.6791 10.358C19.7022 10.4083 19.7257 10.4582 19.75 10.5105C20.0593 10.4036 20.3568 10.3011 20.6539 10.1985C20.4997 9.6142 20.3489 9.04444 20.1991 8.47467C19.9789 7.63789 19.7584 6.80111 19.5396 5.96403C19.5208 5.89198 19.493 5.85508 19.4149 5.85508C19.4106 5.85508 19.4062 5.85508 19.4019 5.85537C19.3188 5.85944 19.2355 5.86089 19.1522 5.86089C19.0578 5.86089 18.9635 5.85886 18.8692 5.85624C18.8666 5.85624 18.864 5.85624 18.8614 5.85624C18.7942 5.85624 18.7644 5.8821 18.7404 5.94864C18.6394 6.22785 18.5303 6.50446 18.4215 6.78919C18.3865 6.76363 18.3608 6.74183 18.3321 6.7244C18.0474 6.54717 17.7737 6.34669 17.4745 6.1988C16.7829 5.85711 16.0395 5.69876 15.2736 5.6424C15.0797 5.62816 14.8864 5.62061 14.694 5.62061C14.0071 5.62061 13.33 5.71591 12.6705 5.93789C10.8406 6.55385 9.51913 7.77038 8.61575 9.46109C8.20689 10.2261 7.9864 11.0524 7.88772 11.9145C7.78992 12.7681 7.81423 13.6171 7.97048 14.4611C8.21296 15.7695 8.77924 16.9189 9.67278 17.903C10.4723 18.7836 11.4118 19.4566 12.5467 19.8343C13.242 20.0658 13.9469 20.1722 14.6599 20.1722C15.0447 20.1722 15.4322 20.1411 15.8214 20.0818C16.8752 19.9211 17.8726 19.5957 18.7876 19.0367C18.9574 18.933 19.1218 18.8205 19.2954 18.7078C19.3104 18.7383 19.3246 18.7642 19.3365 18.7912C19.4658 19.0893 19.6099 19.3819 19.7181 19.6875C19.7806 19.8642 19.8675 19.9371 20.0335 19.9371C20.0524 19.9371 20.072 19.9363 20.0929 19.9345C20.1872 19.9264 20.2818 19.9238 20.3776 19.9238C20.5246 19.9238 20.6739 19.9296 20.8278 19.9296C20.8278 19.8747 20.8278 19.8305 20.8278 19.786C20.8278 18.2156 20.8267 16.6452 20.829 15.0748C20.8293 14.8514 20.8388 14.6273 20.8582 14.4051C20.8941 13.9922 21.1129 13.713 21.5145 13.6758C21.7957 13.6496 22.0793 13.6485 22.362 13.6369C22.3794 13.6363 22.3967 13.636 22.4144 13.636C22.4442 13.636 22.474 13.6366 22.5029 13.6366C22.5029 13.3463 22.5029 13.0717 22.5029 12.7972C20.6108 12.7972 18.7274 12.7972 16.8413 12.7972Z" fill="#121212"/>
</svg>
